<?xml version="1.0" encoding="UTF-8"?>
<!DOCTYPE svg PUBLIC "-//W3C//DTD SVG 1.1//EN" "http://www.w3.org/Graphics/SVG/1.1/DTD/svg11.dtd">
<svg version="1.1" xmlns="http://www.w3.org/2000/svg" xmlns:xlink="http://www.w3.org/1999/xlink" x="0" y="0" width="243" height="104" viewBox="0, 0, 243, 104">
  <g id="Background">
    <rect x="0" y="0" width="243" height="104" fill="#FFFFFF"/>
  </g>
  <g id="Name" transform="scale(1,-1) translate(0,-104)">
    <path d="M 63.4401,74 L 63.4401,82.211 L 64.9871,82.211 C 65.6535,82.211 66.2346,82.1396 66.7305,81.9968 C 67.2263,81.854 67.6388,81.6279 67.9681,81.3185 C 68.2973,81.0091 68.5412,80.6065 68.6999,80.1107 C 68.8586,79.6148 68.9379,79.0139 68.9379,78.3078 C 68.9379,77.5541 68.8427,76.9056 68.6523,76.3622 C 68.4619,75.8187 68.1922,75.3725 67.8431,75.0234 C 67.494,74.6743 67.0676,74.4165 66.5639,74.2499 C 66.0601,74.0833 65.4948,74 64.8681,74 L 63.4401,74 z
M 64.4754,81.3899 L 64.4754,74.8568 L 64.8681,74.8568 C 65.3441,74.8568 65.7646,74.9183 66.1295,75.0413 C 66.4944,75.1642 66.8038,75.3626 67.0577,75.6363 C 67.3116,75.91 67.504,76.267 67.6349,76.7073 C 67.7658,77.1476 67.8312,77.6811 67.8312,78.3078 C 67.8312,78.8869 67.7677,79.3729 67.6408,79.7656 C 67.5139,80.1583 67.3294,80.4756 67.0875,80.7176 C 66.8455,80.9595 66.548,81.1321 66.195,81.2352 C 65.8419,81.3383 65.4393,81.3899 64.9871,81.3899 L 64.4754,81.3899 z
M 71.1989,74 L 70.235,74 L 70.235,79.712 L 71.1989,79.712 L 71.1989,74 z
M 70.7229,81.0924 C 70.5246,81.0924 70.3659,81.1559 70.2469,81.2828 C 70.1279,81.4097 70.0684,81.5763 70.0684,81.7826 C 70.0684,81.9809 70.1279,82.1436 70.2469,82.2705 C 70.3659,82.3974 70.5246,82.4609 70.7229,82.4609 C 70.9133,82.4609 71.068,82.3974 71.187,82.2705 C 71.306,82.1436 71.3655,81.9809 71.3655,81.7826 C 71.3655,81.5763 71.306,81.4097 71.187,81.2828 C 71.068,81.1559 70.9133,81.0924 70.7229,81.0924 z
M 76.3397,77.7842 C 76.3397,77.5383 76.3318,77.3261 76.3159,77.1476 C 76.3,76.9691 76.2842,76.8124 76.2683,76.6775 L 73.3528,76.6775 C 73.3845,76.0032 73.5293,75.5073 73.7872,75.19 C 74.045,74.8727 74.4159,74.714 74.8998,74.714 C 75.0664,74.714 75.2171,74.7338 75.352,74.7735 C 75.4869,74.8132 75.6039,74.8608 75.7031,74.9163 C 75.8022,74.9718 75.8855,75.0274 75.953,75.0829 C 76.0204,75.1384 76.07,75.1821 76.1017,75.2138 L 76.4587,74.5355 C 76.419,74.4958 76.3595,74.4383 76.2802,74.363 C 76.2009,74.2876 76.0938,74.2122 75.9589,74.1368 C 75.824,74.0615 75.6574,73.996 75.4591,73.9405 C 75.2608,73.885 75.0267,73.8572 74.757,73.8572 C 74.4,73.8572 74.0767,73.9167 73.7872,74.0357 C 73.4976,74.1547 73.2517,74.3392 73.0494,74.5891 C 72.8471,74.839 72.6904,75.1563 72.5793,75.5411 C 72.4682,75.9258 72.4127,76.3879 72.4127,76.9274 C 72.4127,77.4351 72.4702,77.8735 72.5853,78.2424 C 72.7003,78.6113 72.857,78.9147 73.0553,79.1527 C 73.2536,79.3907 73.4837,79.5672 73.7455,79.6823 C 74.0073,79.7973 74.2889,79.8548 74.5904,79.8548 C 75.1378,79.8548 75.5662,79.6823 75.8756,79.3372 C 76.185,78.9921 76.3397,78.4744 76.3397,77.7842 z
M 74.5309,79.0694 C 74.1898,79.0694 73.9161,78.9266 73.7098,78.641 C 73.5035,78.3554 73.3845,77.9429 73.3528,77.4034 L 75.4353,77.4034 C 75.4432,77.4431 75.4492,77.5006 75.4532,77.576 C 75.4571,77.6513 75.4591,77.7326 75.4591,77.8199 C 75.4591,78.2166 75.3798,78.524 75.2211,78.7422 C 75.0624,78.9603 74.8324,79.0694 74.5309,79.0694 z
M 84.6578,80.1166 C 84.6578,79.831 84.6221,79.5811 84.5507,79.3669 C 84.4793,79.1527 84.3821,78.9683 84.2592,78.8136 C 84.1362,78.6589 83.9934,78.5339 83.8308,78.4387 C 83.6681,78.3435 83.4995,78.2721 83.325,78.2245 L 83.325,78.2007 C 83.5392,78.161 83.7395,78.0857 83.9259,77.9746 C 84.1124,77.8635 84.275,77.7247 84.4139,77.5581 C 84.5527,77.3915 84.6638,77.1952 84.7471,76.9691 C 84.8304,76.7429 84.872,76.495 84.872,76.2253 C 84.872,75.9 84.8165,75.6025 84.7054,75.3328 C 84.5943,75.0631 84.4218,74.829 84.1877,74.6307 C 83.9537,74.4324 83.6582,74.2777 83.3012,74.1666 C 82.9442,74.0555 82.5198,74 82.0279,74 L 80.35,74 L 80.35,82.211 L 81.9327,82.211 C 82.4166,82.211 82.8312,82.1614 83.1763,82.0623 C 83.5214,81.9631 83.805,81.8223 84.0271,81.6398 C 84.2492,81.4573 84.4099,81.2372 84.5091,80.9794 C 84.6082,80.7215 84.6578,80.4339 84.6578,80.1166 z
M 83.6106,80.0809 C 83.6106,80.4617 83.4757,80.7751 83.206,81.021 C 82.9363,81.2669 82.5118,81.3899 81.9327,81.3899 L 81.3853,81.3899 L 81.3853,78.5577 L 81.9208,78.5577 C 82.4761,78.5577 82.8966,78.6926 83.1822,78.9623 C 83.4678,79.232 83.6106,79.6049 83.6106,80.0809 z
M 83.7653,76.2967 C 83.7653,76.741 83.6205,77.092 83.331,77.3499 C 83.0414,77.6077 82.6269,77.7366 82.0874,77.7366 L 81.3853,77.7366 L 81.3853,74.8568 L 82.0279,74.8568 C 82.6388,74.8568 83.0811,74.9778 83.3548,75.2198 C 83.6285,75.4617 83.7653,75.8207 83.7653,76.2967 z
M 89.8105,77.7842 C 89.8105,77.5383 89.8026,77.3261 89.7867,77.1476 C 89.7708,76.9691 89.755,76.8124 89.7391,76.6775 L 86.8236,76.6775 C 86.8553,76.0032 87.0001,75.5073 87.258,75.19 C 87.5158,74.8727 87.8867,74.714 88.3706,74.714 C 88.5372,74.714 88.6879,74.7338 88.8228,74.7735 C 88.9577,74.8132 89.0747,74.8608 89.1739,74.9163 C 89.273,74.9718 89.3563,75.0274 89.4238,75.0829 C 89.4912,75.1384 89.5408,75.1821 89.5725,75.2138 L 89.9295,74.5355 C 89.8898,74.4958 89.8303,74.4383 89.751,74.363 C 89.6717,74.2876 89.5646,74.2122 89.4297,74.1368 C 89.2948,74.0615 89.1282,73.996 88.9299,73.9405 C 88.7316,73.885 88.4975,73.8572 88.2278,73.8572 C 87.8708,73.8572 87.5475,73.9167 87.258,74.0357 C 86.9684,74.1547 86.7225,74.3392 86.5202,74.5891 C 86.3179,74.839 86.1612,75.1563 86.0501,75.5411 C 85.939,75.9258 85.8835,76.3879 85.8835,76.9274 C 85.8835,77.4351 85.941,77.8735 86.0561,78.2424 C 86.1711,78.6113 86.3278,78.9147 86.5261,79.1527 C 86.7244,79.3907 86.9545,79.5672 87.2163,79.6823 C 87.4781,79.7973 87.7597,79.8548 88.0612,79.8548 C 88.6086,79.8548 89.037,79.6823 89.3464,79.3372 C 89.6558,78.9921 89.8105,78.4744 89.8105,77.7842 z
M 88.0017,79.0694 C 87.6606,79.0694 87.3869,78.9266 87.1806,78.641 C 86.9743,78.3554 86.8553,77.9429 86.8236,77.4034 L 88.9061,77.4034 C 88.914,77.4431 88.92,77.5006 88.924,77.576 C 88.9279,77.6513 88.9299,77.7326 88.9299,77.8199 C 88.9299,78.2166 88.8506,78.524 88.6919,78.7422 C 88.5332,78.9603 88.3032,79.0694 88.0017,79.0694 z
M 90.7625,75.4518 C 90.7625,75.785 90.826,76.0627 90.9529,76.2848 C 91.0798,76.5069 91.2504,76.6874 91.4646,76.8263 C 91.6788,76.9651 91.9307,77.0643 92.2203,77.1238 C 92.5098,77.1833 92.8172,77.213 93.1425,77.213 L 93.44,77.213 L 93.44,77.7604 C 93.44,78.2443 93.3547,78.5775 93.1842,78.76 C 93.0136,78.9425 92.7736,79.0337 92.4642,79.0337 C 92.1786,79.0337 91.9406,78.9722 91.7502,78.8493 C 91.5598,78.7263 91.4091,78.6172 91.298,78.522 L 90.8934,79.1646 C 90.9569,79.2281 91.0382,79.2995 91.1374,79.3788 C 91.2365,79.4581 91.3575,79.5335 91.5003,79.6049 C 91.6431,79.6763 91.8057,79.7358 91.9882,79.7834 C 92.1707,79.831 92.3769,79.8548 92.607,79.8548 C 93.1941,79.8548 93.6383,79.6922 93.9398,79.3669 C 94.2413,79.0416 94.392,78.518 94.392,77.7961 L 94.392,75.19 C 94.392,74.9441 94.3999,74.7041 94.4158,74.4701 C 94.4317,74.236 94.4475,74.0793 94.4634,74 L 93.5471,74 L 93.5114,74.6307 L 93.4876,74.6307 C 93.4559,74.5593 93.4083,74.478 93.3448,74.3868 C 93.2813,74.2955 93.202,74.2122 93.1068,74.1368 C 93.0116,74.0615 92.8966,73.996 92.7617,73.9405 C 92.6268,73.885 92.4682,73.8572 92.2857,73.8572 C 92.0715,73.8572 91.8712,73.8969 91.6848,73.9762 C 91.4983,74.0555 91.3357,74.1666 91.1969,74.3094 C 91.058,74.4522 90.9509,74.6208 90.8756,74.8152 C 90.8002,75.0095 90.7625,75.2217 90.7625,75.4518 z
M 92.488,74.6783 C 92.6229,74.6783 92.7419,74.6981 92.845,74.7378 C 92.9481,74.7775 93.0374,74.8251 93.1128,74.8806 C 93.1881,74.9361 93.2516,74.9976 93.3032,75.0651 C 93.3547,75.1325 93.4003,75.19 93.44,75.2376 L 93.44,76.499 L 93.1306,76.4871 C 92.6705,76.4712 92.3214,76.3919 92.0834,76.2491 C 91.8454,76.1063 91.7264,75.8762 91.7264,75.5589 C 91.7264,75.2654 91.7938,75.0452 91.9287,74.8985 C 92.0636,74.7517 92.25,74.6783 92.488,74.6783 z
M 99.8422,74 L 98.9616,74 L 98.9616,74.6426 L 98.9378,74.6426 C 98.914,74.595 98.8624,74.5256 98.7831,74.4344 C 98.7038,74.3431 98.6026,74.2559 98.4797,74.1726 C 98.3567,74.0893 98.2079,74.0159 98.0334,73.9524 C 97.8589,73.8889 97.6645,73.8572 97.4503,73.8572 C 97.1964,73.8572 96.9684,73.8949 96.7661,73.9702 C 96.5638,74.0456 96.3912,74.1666 96.2484,74.3332 C 96.1056,74.4998 95.9965,74.716 95.9212,74.9818 C 95.8458,75.2475 95.8081,75.5748 95.8081,75.9635 L 95.8081,79.712 L 96.772,79.712 L 96.772,76.0349 C 96.772,75.5589 96.8494,75.2198 97.0041,75.0174 C 97.1588,74.8152 97.3987,74.714 97.724,74.714 C 98.0017,74.714 98.2357,74.7834 98.4261,74.9223 C 98.6165,75.0611 98.7672,75.1979 98.8783,75.3328 L 98.8783,79.712 L 99.8422,79.712 L 99.8422,74 z
M 103.7216,78.9266 L 102.5554,78.9266 L 102.5554,74 L 101.5915,74 L 101.5915,78.9266 L 100.9013,78.9266 L 100.9013,79.5692 L 101.5915,79.7001 L 101.5915,80.8425 C 101.5915,81.1519 101.6351,81.4177 101.7224,81.6398 C 101.8097,81.8619 101.9247,82.0444 102.0675,82.1872 C 102.2103,82.33 102.3769,82.4331 102.5673,82.4966 C 102.7577,82.5601 102.96,82.5918 103.1742,82.5918 C 103.3805,82.5918 103.555,82.564 103.6978,82.5085 C 103.8406,82.453 103.9358,82.4093 103.9834,82.3776 L 103.7811,81.5803 C 103.7335,81.612 103.6661,81.6458 103.5788,81.6815 C 103.4915,81.7172 103.3844,81.735 103.2575,81.735 C 103.0274,81.735 102.8529,81.6636 102.7339,81.5208 C 102.6149,81.378 102.5554,81.1162 102.5554,80.7354 L 102.5554,79.712 L 103.8406,79.712 L 103.7216,78.9266 z
M 107.1131,78.9266 L 105.8636,78.9266 L 105.8636,75.7612 C 105.8636,75.3566 105.9152,75.0809 106.0183,74.9342 C 106.1214,74.7874 106.296,74.714 106.5419,74.714 C 106.6847,74.714 106.8077,74.7338 106.9108,74.7735 C 107.0139,74.8132 107.0893,74.8489 107.1369,74.8806 L 107.2678,74.1071 C 107.2281,74.0754 107.1329,74.0258 106.9822,73.9583 C 106.8315,73.8909 106.6292,73.8572 106.3753,73.8572 C 105.8834,73.8572 105.5145,73.994 105.2686,74.2678 C 105.0227,74.5414 104.8997,74.9956 104.8997,75.6303 L 104.8997,78.9266 L 104.2095,78.9266 L 104.2095,79.5692 L 104.8997,79.712 L 105.0068,81.3066 L 105.8636,81.3066 L 105.8636,79.712 L 107.2321,79.712 L 107.1131,78.9266 z
M 110.7188,78.8671 C 110.695,78.883 110.6434,78.9028 110.5641,78.9266 C 110.4848,78.9504 110.3777,78.9623 110.2428,78.9623 C 109.9413,78.9623 109.7053,78.881 109.5348,78.7184 C 109.3642,78.5557 109.2432,78.3792 109.1718,78.1888 L 109.1718,74 L 108.2079,74 L 108.2079,79.712 L 109.0885,79.712 L 109.0885,78.9385 L 109.1123,78.9385 C 109.152,79.0496 109.2035,79.1587 109.267,79.2658 C 109.3305,79.3729 109.4098,79.4681 109.505,79.5514 C 109.6002,79.6347 109.7132,79.7001 109.8441,79.7477 C 109.9751,79.7953 110.1317,79.8191 110.3142,79.8191 C 110.4491,79.8191 110.5582,79.8072 110.6415,79.7834 C 110.7248,79.7596 110.7902,79.7398 110.8378,79.7239 L 110.7188,78.8671 z
M 111.2781,75.4518 C 111.2781,75.785 111.3416,76.0627 111.4685,76.2848 C 111.5954,76.5069 111.766,76.6874 111.9802,76.8263 C 112.1944,76.9651 112.4463,77.0643 112.7359,77.1238 C 113.0254,77.1833 113.3328,77.213 113.6581,77.213 L 113.9556,77.213 L 113.9556,77.7604 C 113.9556,78.2443 113.8703,78.5775 113.6998,78.76 C 113.5292,78.9425 113.2892,79.0337 112.9798,79.0337 C 112.6942,79.0337 112.4562,78.9722 112.2658,78.8493 C 112.0754,78.7263 111.9247,78.6172 111.8136,78.522 L 111.409,79.1646 C 111.4725,79.2281 111.5538,79.2995 111.653,79.3788 C 111.7521,79.4581 111.8731,79.5335 112.0159,79.6049 C 112.1587,79.6763 112.3213,79.7358 112.5038,79.7834 C 112.6863,79.831 112.8925,79.8548 113.1226,79.8548 C 113.7097,79.8548 114.1539,79.6922 114.4554,79.3669 C 114.7569,79.0416 114.9076,78.518 114.9076,77.7961 L 114.9076,75.19 C 114.9076,74.9441 114.9155,74.7041 114.9314,74.4701 C 114.9473,74.236 114.9631,74.0793 114.979,74 L 114.0627,74 L 114.027,74.6307 L 114.0032,74.6307 C 113.9715,74.5593 113.9239,74.478 113.8604,74.3868 C 113.7969,74.2955 113.7176,74.2122 113.6224,74.1368 C 113.5272,74.0615 113.4122,73.996 113.2773,73.9405 C 113.1424,73.885 112.9838,73.8572 112.8013,73.8572 C 112.5871,73.8572 112.3868,73.8969 112.2004,73.9762 C 112.0139,74.0555 111.8513,74.1666 111.7125,74.3094 C 111.5736,74.4522 111.4665,74.6208 111.3912,74.8152 C 111.3158,75.0095 111.2781,75.2217 111.2781,75.4518 z
M 113.0036,74.6783 C 113.1385,74.6783 113.2575,74.6981 113.3606,74.7378 C 113.4637,74.7775 113.553,74.8251 113.6284,74.8806 C 113.7037,74.9361 113.7672,74.9976 113.8188,75.0651 C 113.8703,75.1325 113.9159,75.19 113.9556,75.2376 L 113.9556,76.499 L 113.6462,76.4871 C 113.1861,76.4712 112.837,76.3919 112.599,76.2491 C 112.361,76.1063 112.242,75.8762 112.242,75.5589 C 112.242,75.2654 112.3094,75.0452 112.4443,74.8985 C 112.5792,74.7517 112.7656,74.6783 113.0036,74.6783 z
M 120.453,78.9623 L 119.739,78.9623 C 119.9215,78.6608 120.0127,78.3197 120.0127,77.9389 C 120.0127,77.6374 119.9631,77.3657 119.864,77.1238 C 119.7648,76.8818 119.626,76.6775 119.4475,76.5109 C 119.269,76.3443 119.0587,76.2174 118.8168,76.1301 C 118.5748,76.0428 118.315,75.9992 118.0373,75.9992 C 117.9818,75.9992 117.9302,75.9992 117.8826,75.9992 C 117.835,75.9992 117.7834,76.0032 117.7279,76.0111 C 117.6327,75.9714 117.5335,75.908 117.4304,75.8207 C 117.3273,75.7334 117.2757,75.6184 117.2757,75.4756 C 117.2757,75.3566 117.3213,75.2594 117.4126,75.1841 C 117.5038,75.1087 117.6525,75.071 117.8588,75.071 L 118.5847,75.071 C 118.8544,75.071 119.1043,75.0432 119.3344,74.9877 C 119.5645,74.9322 119.7648,74.8429 119.9354,74.72 C 120.1059,74.597 120.2388,74.4403 120.334,74.2499 C 120.4292,74.0595 120.4768,73.8294 120.4768,73.5597 C 120.4768,73.2503 120.4114,72.9687 120.2805,72.7148 C 120.1496,72.4609 119.9651,72.2428 119.7271,72.0603 C 119.4891,71.8778 119.1995,71.735 118.8584,71.6319 C 118.5173,71.5288 118.1365,71.4772 117.716,71.4772 C 117.1051,71.4772 116.641,71.6101 116.3237,71.8758 C 116.0064,72.1416 115.8477,72.5244 115.8477,73.0242 C 115.8477,73.2384 115.8854,73.4228 115.9608,73.5775 C 116.0361,73.7322 116.1254,73.8671 116.2285,73.9821 C 116.3316,74.0972 116.4368,74.1884 116.5439,74.2559 C 116.6509,74.3233 116.7362,74.3768 116.7997,74.4165 L 116.7997,74.4403 C 116.5538,74.6228 116.4308,74.8885 116.4308,75.2376 C 116.4308,75.3883 116.4606,75.5192 116.5201,75.6303 C 116.5796,75.7414 116.647,75.8326 116.7224,75.904 C 116.7977,75.9754 116.8731,76.0329 116.9485,76.0766 C 117.0238,76.1202 117.0813,76.1499 117.121,76.1658 L 117.121,76.1896 C 116.8275,76.3245 116.5915,76.5367 116.413,76.8263 C 116.2345,77.1158 116.1452,77.4867 116.1452,77.9389 C 116.1452,78.2562 116.1968,78.5359 116.2999,78.7778 C 116.403,79.0198 116.5419,79.2201 116.7164,79.3788 C 116.8909,79.5375 117.0952,79.6565 117.3293,79.7358 C 117.5633,79.8151 117.8152,79.8548 118.0849,79.8548 C 118.3546,79.8548 118.6085,79.8072 118.8465,79.712 L 120.5839,79.712 L 120.453,78.9623 z
M 117.7993,74.1785 C 117.6327,74.1785 117.4859,74.1904 117.359,74.2142 C 117.2876,74.1745 117.2182,74.1269 117.1508,74.0714 C 117.0833,74.0159 117.0218,73.9484 116.9663,73.8691 C 116.9108,73.7898 116.8652,73.6966 116.8295,73.5894 C 116.7938,73.4823 116.7759,73.3574 116.7759,73.2146 C 116.7759,72.6037 117.1131,72.2983 117.7874,72.2983 C 118.3665,72.2983 118.7949,72.4113 119.0726,72.6374 C 119.3503,72.8635 119.4891,73.1234 119.4891,73.4169 C 119.4891,73.6946 119.4018,73.8909 119.2273,74.006 C 119.0528,74.121 118.8187,74.1785 118.5252,74.1785 L 117.7993,74.1785 z
M 119.0726,77.9389 C 119.0726,78.3514 118.9754,78.645 118.7811,78.8195 C 118.5867,78.994 118.3586,79.0813 118.0968,79.0813 C 117.8191,79.0813 117.5811,78.994 117.3828,78.8195 C 117.1845,78.645 117.0853,78.3514 117.0853,77.9389 C 117.0853,77.5264 117.1845,77.2328 117.3828,77.0583 C 117.5811,76.8838 117.8112,76.7965 118.073,76.7965 C 118.3507,76.7965 118.5867,76.8838 118.7811,77.0583 C 118.9754,77.2328 119.0726,77.5264 119.0726,77.9389 z
M 123.9873,78.9266 L 122.7378,78.9266 L 122.7378,75.7612 C 122.7378,75.3566 122.7894,75.0809 122.8925,74.9342 C 122.9956,74.7874 123.1702,74.714 123.4161,74.714 C 123.5589,74.714 123.6819,74.7338 123.785,74.7735 C 123.8881,74.8132 123.9635,74.8489 124.0111,74.8806 L 124.142,74.1071 C 124.1023,74.0754 124.0071,74.0258 123.8564,73.9583 C 123.7057,73.8909 123.5034,73.8572 123.2495,73.8572 C 122.7576,73.8572 122.3887,73.994 122.1428,74.2678 C 121.8969,74.5414 121.7739,74.9956 121.7739,75.6303 L 121.7739,78.9266 L 121.0837,78.9266 L 121.0837,79.5692 L 121.7739,79.712 L 121.881,81.3066 L 122.7378,81.3066 L 122.7378,79.712 L 124.1063,79.712 L 123.9873,78.9266 z
M 128.664,77.7842 C 128.664,77.5383 128.6561,77.3261 128.6402,77.1476 C 128.6243,76.9691 128.6085,76.8124 128.5926,76.6775 L 125.6771,76.6775 C 125.7088,76.0032 125.8536,75.5073 126.1115,75.19 C 126.3693,74.8727 126.7402,74.714 127.2241,74.714 C 127.3907,74.714 127.5414,74.7338 127.6763,74.7735 C 127.8112,74.8132 127.9282,74.8608 128.0274,74.9163 C 128.1265,74.9718 128.2098,75.0274 128.2773,75.0829 C 128.3447,75.1384 128.3943,75.1821 128.426,75.2138 L 128.783,74.5355 C 128.7433,74.4958 128.6838,74.4383 128.6045,74.363 C 128.5252,74.2876 128.4181,74.2122 128.2832,74.1368 C 128.1483,74.0615 127.9817,73.996 127.7834,73.9405 C 127.5851,73.885 127.351,73.8572 127.0813,73.8572 C 126.7243,73.8572 126.401,73.9167 126.1115,74.0357 C 125.8219,74.1547 125.576,74.3392 125.3737,74.5891 C 125.1714,74.839 125.0147,75.1563 124.9036,75.5411 C 124.7925,75.9258 124.737,76.3879 124.737,76.9274 C 124.737,77.4351 124.7945,77.8735 124.9096,78.2424 C 125.0246,78.6113 125.1813,78.9147 125.3796,79.1527 C 125.5779,79.3907 125.808,79.5672 126.0698,79.6823 C 126.3316,79.7973 126.6132,79.8548 126.9147,79.8548 C 127.4621,79.8548 127.8905,79.6823 128.1999,79.3372 C 128.5093,78.9921 128.664,78.4744 128.664,77.7842 z
M 126.8552,79.0694 C 126.5141,79.0694 126.2404,78.9266 126.0341,78.641 C 125.8278,78.3554 125.7088,77.9429 125.6771,77.4034 L 127.7596,77.4034 C 127.7675,77.4431 127.7735,77.5006 127.7775,77.576 C 127.7814,77.6513 127.7834,77.7326 127.7834,77.8199 C 127.7834,78.2166 127.7041,78.524 127.5454,78.7422 C 127.3867,78.9603 127.1567,79.0694 126.8552,79.0694 z
M 132.2102,76.7727 C 132.2102,77.3518 132.2856,77.8358 132.4363,78.2245 C 132.587,78.6132 132.7814,78.9266 133.0194,79.1646 C 133.2574,79.4026 133.5271,79.5712 133.8286,79.6704 C 134.1301,79.7695 134.4315,79.8191 134.733,79.8191 C 134.9155,79.8191 135.0741,79.8052 135.209,79.7774 C 135.3439,79.7497 135.4549,79.716 135.5422,79.6763 L 135.5422,82.4133 L 136.5061,82.5204 L 136.5061,74 L 135.6255,74 L 135.6255,74.6069 L 135.6017,74.6069 C 135.5779,74.5593 135.5343,74.4939 135.4708,74.4106 C 135.4073,74.3273 135.3201,74.244 135.209,74.1607 C 135.0979,74.0774 134.9591,74.006 134.7925,73.9464 C 134.6259,73.8869 134.4315,73.8572 134.2094,73.8572 C 133.9397,73.8572 133.6838,73.9107 133.4419,74.0179 C 133.1999,74.125 132.9877,74.2955 132.8052,74.5296 C 132.6227,74.7636 132.478,75.0651 132.3709,75.434 C 132.2638,75.8029 132.2102,76.2491 132.2102,76.7727 z
M 134.4712,74.714 C 134.6219,74.714 134.7568,74.7338 134.8758,74.7735 C 134.9948,74.8132 135.0979,74.8628 135.1852,74.9223 C 135.2725,74.9818 135.3459,75.0432 135.4054,75.1067 C 135.4649,75.1702 135.5105,75.2257 135.5422,75.2733 L 135.5422,78.7957 C 135.4549,78.8512 135.3538,78.8988 135.2388,78.9385 C 135.1237,78.9782 134.9789,78.998 134.8044,78.998 C 134.5823,78.998 134.374,78.9603 134.1797,78.885 C 133.9853,78.8096 133.8167,78.6846 133.6739,78.5101 C 133.5311,78.3356 133.4181,78.1095 133.3348,77.8318 C 133.2515,77.5541 133.2098,77.213 133.2098,76.8084 C 133.2098,76.4117 133.2435,76.0805 133.311,75.8148 C 133.3784,75.549 133.4716,75.3348 133.5906,75.1722 C 133.7096,75.0095 133.8445,74.8925 133.9952,74.8211 C 134.1459,74.7497 134.3046,74.714 134.4712,74.714 z
M 141.6469,77.7842 C 141.6469,77.5383 141.639,77.3261 141.6231,77.1476 C 141.6072,76.9691 141.5914,76.8124 141.5755,76.6775 L 138.66,76.6775 C 138.6917,76.0032 138.8365,75.5073 139.0944,75.19 C 139.3522,74.8727 139.7231,74.714 140.207,74.714 C 140.3736,74.714 140.5243,74.7338 140.6592,74.7735 C 140.7941,74.8132 140.9111,74.8608 141.0103,74.9163 C 141.1094,74.9718 141.1927,75.0274 141.2602,75.0829 C 141.3276,75.1384 141.3772,75.1821 141.4089,75.2138 L 141.7659,74.5355 C 141.7262,74.4958 141.6667,74.4383 141.5874,74.363 C 141.5081,74.2876 141.401,74.2122 141.2661,74.1368 C 141.1312,74.0615 140.9646,73.996 140.7663,73.9405 C 140.568,73.885 140.3339,73.8572 140.0642,73.8572 C 139.7072,73.8572 139.3839,73.9167 139.0944,74.0357 C 138.8048,74.1547 138.5589,74.3392 138.3566,74.5891 C 138.1543,74.839 137.9976,75.1563 137.8865,75.5411 C 137.7754,75.9258 137.7199,76.3879 137.7199,76.9274 C 137.7199,77.4351 137.7774,77.8735 137.8925,78.2424 C 138.0075,78.6113 138.1642,78.9147 138.3625,79.1527 C 138.5608,79.3907 138.7909,79.5672 139.0527,79.6823 C 139.3145,79.7973 139.5961,79.8548 139.8976,79.8548 C 140.445,79.8548 140.8734,79.6823 141.1828,79.3372 C 141.4922,78.9921 141.6469,78.4744 141.6469,77.7842 z
M 139.8381,79.0694 C 139.497,79.0694 139.2233,78.9266 139.017,78.641 C 138.8107,78.3554 138.6917,77.9429 138.66,77.4034 L 140.7425,77.4034 C 140.7504,77.4431 140.7564,77.5006 140.7604,77.576 C 140.7643,77.6513 140.7663,77.7326 140.7663,77.8199 C 140.7663,78.2166 140.687,78.524 140.5283,78.7422 C 140.3696,78.9603 140.1396,79.0694 139.8381,79.0694 z
M 145.443,78.8671 C 145.4192,78.883 145.3676,78.9028 145.2883,78.9266 C 145.209,78.9504 145.1019,78.9623 144.967,78.9623 C 144.6655,78.9623 144.4295,78.881 144.259,78.7184 C 144.0884,78.5557 143.9674,78.3792 143.896,78.1888 L 143.896,74 L 142.9321,74 L 142.9321,79.712 L 143.8127,79.712 L 143.8127,78.9385 L 143.8365,78.9385 C 143.8762,79.0496 143.9277,79.1587 143.9912,79.2658 C 144.0547,79.3729 144.134,79.4681 144.2292,79.5514 C 144.3244,79.6347 144.4374,79.7001 144.5683,79.7477 C 144.6993,79.7953 144.8559,79.8191 145.0384,79.8191 C 145.1733,79.8191 145.2824,79.8072 145.3657,79.7834 C 145.449,79.7596 145.5144,79.7398 145.562,79.7239 L 145.443,78.8671 z
M 153.1542,80.1166 C 153.1542,79.831 153.1185,79.5811 153.0471,79.3669 C 152.9757,79.1527 152.8785,78.9683 152.7556,78.8136 C 152.6326,78.6589 152.4898,78.5339 152.3272,78.4387 C 152.1645,78.3435 151.9959,78.2721 151.8214,78.2245 L 151.8214,78.2007 C 152.0356,78.161 152.2359,78.0857 152.4223,77.9746 C 152.6088,77.8635 152.7714,77.7247 152.9103,77.5581 C 153.0491,77.3915 153.1602,77.1952 153.2435,76.9691 C 153.3268,76.7429 153.3684,76.495 153.3684,76.2253 C 153.3684,75.9 153.3129,75.6025 153.2018,75.3328 C 153.0907,75.0631 152.9182,74.829 152.6841,74.6307 C 152.4501,74.4324 152.1546,74.2777 151.7976,74.1666 C 151.4406,74.0555 151.0162,74 150.5243,74 L 148.8464,74 L 148.8464,82.211 L 150.4291,82.211 C 150.913,82.211 151.3276,82.1614 151.6727,82.0623 C 152.0178,81.9631 152.3014,81.8223 152.5235,81.6398 C 152.7456,81.4573 152.9063,81.2372 153.0055,80.9794 C 153.1046,80.7215 153.1542,80.4339 153.1542,80.1166 z
M 152.107,80.0809 C 152.107,80.4617 151.9721,80.7751 151.7024,81.021 C 151.4327,81.2669 151.0082,81.3899 150.4291,81.3899 L 149.8817,81.3899 L 149.8817,78.5577 L 150.4172,78.5577 C 150.9725,78.5577 151.393,78.6926 151.6786,78.9623 C 151.9642,79.232 152.107,79.6049 152.107,80.0809 z
M 152.2617,76.2967 C 152.2617,76.741 152.1169,77.092 151.8274,77.3499 C 151.5378,77.6077 151.1233,77.7366 150.5838,77.7366 L 149.8817,77.7366 L 149.8817,74.8568 L 150.5243,74.8568 C 151.1352,74.8568 151.5775,74.9778 151.8512,75.2198 C 152.1249,75.4617 152.2617,75.8207 152.2617,76.2967 z
M 158.6401,74 L 157.7595,74 L 157.7595,74.6426 L 157.7357,74.6426 C 157.7119,74.595 157.6603,74.5256 157.581,74.4344 C 157.5017,74.3431 157.4005,74.2559 157.2776,74.1726 C 157.1546,74.0893 157.0058,74.0159 156.8313,73.9524 C 156.6568,73.8889 156.4624,73.8572 156.2482,73.8572 C 155.9943,73.8572 155.7663,73.8949 155.564,73.9702 C 155.3617,74.0456 155.1891,74.1666 155.0463,74.3332 C 154.9035,74.4998 154.7944,74.716 154.7191,74.9818 C 154.6437,75.2475 154.606,75.5748 154.606,75.9635 L 154.606,79.712 L 155.5699,79.712 L 155.5699,76.0349 C 155.5699,75.5589 155.6473,75.2198 155.802,75.0174 C 155.9567,74.8152 156.1966,74.714 156.5219,74.714 C 156.7996,74.714 157.0336,74.7834 157.224,74.9223 C 157.4144,75.0611 157.5651,75.1979 157.6762,75.3328 L 157.6762,79.712 L 158.6401,79.712 L 158.6401,74 z
M 163.2335,74 L 163.2335,77.6771 C 163.2335,78.161 163.1522,78.5081 162.9896,78.7184 C 162.8269,78.9286 162.579,79.0337 162.2458,79.0337 C 161.9602,79.0337 161.7222,78.9623 161.5318,78.8195 C 161.3414,78.6767 161.1907,78.5379 161.0796,78.403 L 161.0796,74 L 160.1157,74 L 160.1157,79.712 L 160.9963,79.712 L 160.9963,79.0694 L 161.0201,79.0694 C 161.0439,79.117 161.0955,79.1864 161.1748,79.2777 C 161.2541,79.3689 161.3573,79.4562 161.4842,79.5395 C 161.6111,79.6228 161.7619,79.6961 161.9364,79.7596 C 162.1109,79.8231 162.3093,79.8548 162.5314,79.8548 C 162.7853,79.8548 163.0153,79.8171 163.2216,79.7418 C 163.4279,79.6664 163.6024,79.5454 163.7452,79.3788 C 163.888,79.2122 163.9991,78.996 164.0784,78.7303 C 164.1577,78.4645 164.1974,78.1372 164.1974,77.7485 L 164.1974,74 L 163.2335,74 z
M 165.3755,76.7727 C 165.3755,77.3518 165.4509,77.8358 165.6016,78.2245 C 165.7523,78.6132 165.9467,78.9266 166.1847,79.1646 C 166.4227,79.4026 166.6924,79.5712 166.9939,79.6704 C 167.2954,79.7695 167.5968,79.8191 167.8983,79.8191 C 168.0808,79.8191 168.2394,79.8052 168.3743,79.7774 C 168.5092,79.7497 168.6202,79.716 168.7075,79.6763 L 168.7075,82.4133 L 169.6714,82.5204 L 169.6714,74 L 168.7908,74 L 168.7908,74.6069 L 168.767,74.6069 C 168.7432,74.5593 168.6996,74.4939 168.6361,74.4106 C 168.5726,74.3273 168.4854,74.244 168.3743,74.1607 C 168.2632,74.0774 168.1244,74.006 167.9578,73.9464 C 167.7912,73.8869 167.5968,73.8572 167.3747,73.8572 C 167.105,73.8572 166.8491,73.9107 166.6072,74.0179 C 166.3652,74.125 166.153,74.2955 165.9705,74.5296 C 165.788,74.7636 165.6433,75.0651 165.5362,75.434 C 165.4291,75.8029 165.3755,76.2491 165.3755,76.7727 z
M 167.6365,74.714 C 167.7872,74.714 167.9221,74.7338 168.0411,74.7735 C 168.1601,74.8132 168.2632,74.8628 168.3505,74.9223 C 168.4378,74.9818 168.5112,75.0432 168.5707,75.1067 C 168.6302,75.1702 168.6758,75.2257 168.7075,75.2733 L 168.7075,78.7957 C 168.6202,78.8512 168.5191,78.8988 168.4041,78.9385 C 168.289,78.9782 168.1442,78.998 167.9697,78.998 C 167.7476,78.998 167.5393,78.9603 167.345,78.885 C 167.1506,78.8096 166.982,78.6846 166.8392,78.5101 C 166.6964,78.3356 166.5834,78.1095 166.5001,77.8318 C 166.4168,77.5541 166.3751,77.213 166.3751,76.8084 C 166.3751,76.4117 166.4088,76.0805 166.4763,75.8148 C 166.5437,75.549 166.6369,75.3348 166.7559,75.1722 C 166.8749,75.0095 167.0098,74.8925 167.1605,74.8211 C 167.3112,74.7497 167.4699,74.714 167.6365,74.714 z
M 174.8122,77.7842 C 174.8122,77.5383 174.8043,77.3261 174.7884,77.1476 C 174.7725,76.9691 174.7567,76.8124 174.7408,76.6775 L 171.8253,76.6775 C 171.857,76.0032 172.0018,75.5073 172.2597,75.19 C 172.5175,74.8727 172.8884,74.714 173.3723,74.714 C 173.5389,74.714 173.6896,74.7338 173.8245,74.7735 C 173.9594,74.8132 174.0764,74.8608 174.1756,74.9163 C 174.2747,74.9718 174.358,75.0274 174.4255,75.0829 C 174.4929,75.1384 174.5425,75.1821 174.5742,75.2138 L 174.9312,74.5355 C 174.8915,74.4958 174.832,74.4383 174.7527,74.363 C 174.6734,74.2876 174.5663,74.2122 174.4314,74.1368 C 174.2965,74.0615 174.1299,73.996 173.9316,73.9405 C 173.7333,73.885 173.4992,73.8572 173.2295,73.8572 C 172.8725,73.8572 172.5492,73.9167 172.2597,74.0357 C 171.9701,74.1547 171.7242,74.3392 171.5219,74.5891 C 171.3196,74.839 171.1629,75.1563 171.0518,75.5411 C 170.9407,75.9258 170.8852,76.3879 170.8852,76.9274 C 170.8852,77.4351 170.9427,77.8735 171.0578,78.2424 C 171.1728,78.6113 171.3295,78.9147 171.5278,79.1527 C 171.7261,79.3907 171.9562,79.5672 172.218,79.6823 C 172.4798,79.7973 172.7614,79.8548 173.0629,79.8548 C 173.6103,79.8548 174.0387,79.6823 174.3481,79.3372 C 174.6575,78.9921 174.8122,78.4744 174.8122,77.7842 z
M 173.0034,79.0694 C 172.6623,79.0694 172.3886,78.9266 172.1823,78.641 C 171.976,78.3554 171.857,77.9429 171.8253,77.4034 L 173.9078,77.4034 C 173.9157,77.4431 173.9217,77.5006 173.9257,77.576 C 173.9296,77.6513 173.9316,77.7326 173.9316,77.8199 C 173.9316,78.2166 173.8523,78.524 173.6936,78.7422 C 173.5349,78.9603 173.3049,79.0694 173.0034,79.0694 z
M 178.5607,78.5577 C 178.4972,78.6291 178.3822,78.7263 178.2156,78.8493 C 178.049,78.9722 177.8308,79.0337 177.5611,79.0337 C 177.3072,79.0337 177.1129,78.9742 176.978,78.8552 C 176.8431,78.7362 176.7757,78.5934 176.7757,78.4268 C 176.7757,78.2126 176.8372,78.0361 176.9602,77.8973 C 177.0831,77.7584 177.2715,77.6097 177.5254,77.451 L 177.8824,77.2368 C 178.2711,77.0067 178.5766,76.7588 178.7987,76.4931 C 179.0208,76.2273 179.1319,75.8842 179.1319,75.4637 C 179.1319,75.0115 178.9752,74.6307 178.6619,74.3213 C 178.3485,74.0119 177.8983,73.8572 177.3112,73.8572 C 177.0811,73.8572 176.8788,73.881 176.7043,73.9286 C 176.5298,73.9762 176.377,74.0317 176.2462,74.0952 C 176.1153,74.1587 176.0062,74.2281 175.9189,74.3034 C 175.8316,74.3788 175.7602,74.4482 175.7047,74.5117 L 176.1688,75.2733 C 176.2164,75.2257 176.2739,75.1702 176.3414,75.1067 C 176.4088,75.0432 176.4901,74.9818 176.5853,74.9223 C 176.6805,74.8628 176.7876,74.8132 176.9066,74.7735 C 177.0256,74.7338 177.1644,74.714 177.3231,74.714 C 177.6087,74.714 177.8269,74.7775 177.9776,74.9044 C 178.1283,75.0313 178.2037,75.186 178.2037,75.3685 C 178.2037,75.5034 178.1859,75.6204 178.1502,75.7196 C 178.1145,75.8187 178.0609,75.908 177.9895,75.9873 C 177.9181,76.0666 177.8308,76.142 177.7277,76.2134 C 177.6246,76.2848 177.5056,76.3641 177.3707,76.4514 L 177.0137,76.6775 C 176.6567,76.9076 176.377,77.1495 176.1748,77.4034 C 175.9725,77.6573 175.8713,77.9825 175.8713,78.3792 C 175.8713,78.5934 175.913,78.7898 175.9963,78.9683 C 176.0796,79.1467 176.1966,79.3014 176.3473,79.4324 C 176.498,79.5633 176.6746,79.6664 176.8769,79.7418 C 177.0792,79.8171 177.2953,79.8548 177.5254,79.8548 C 177.7475,79.8548 177.9379,79.833 178.0966,79.7894 C 178.2553,79.7457 178.3921,79.6902 178.5072,79.6228 C 178.6222,79.5553 178.7174,79.4879 178.7928,79.4205 C 178.8681,79.353 178.9296,79.2955 178.9772,79.2479 L 178.5607,78.5577 z
M 182.7733,78.8671 C 182.7495,78.883 182.6979,78.9028 182.6186,78.9266 C 182.5393,78.9504 182.4322,78.9623 182.2973,78.9623 C 181.9958,78.9623 181.7598,78.881 181.5893,78.7184 C 181.4187,78.5557 181.2977,78.3792 181.2263,78.1888 L 181.2263,74 L 180.2624,74 L 180.2624,79.712 L 181.143,79.712 L 181.143,78.9385 L 181.1668,78.9385 C 181.2065,79.0496 181.258,79.1587 181.3215,79.2658 C 181.385,79.3729 181.4643,79.4681 181.5595,79.5514 C 181.6547,79.6347 181.7677,79.7001 181.8986,79.7477 C 182.0296,79.7953 182.1862,79.8191 182.3687,79.8191 C 182.5036,79.8191 182.6127,79.8072 182.696,79.7834 C 182.7793,79.7596 182.8447,79.7398 182.8923,79.7239 L 182.7733,78.8671 z
M 187.2477,77.7842 C 187.2477,77.5383 187.2398,77.3261 187.2239,77.1476 C 187.208,76.9691 187.1922,76.8124 187.1763,76.6775 L 184.2608,76.6775 C 184.2925,76.0032 184.4373,75.5073 184.6952,75.19 C 184.953,74.8727 185.3239,74.714 185.8078,74.714 C 185.9744,74.714 186.1251,74.7338 186.26,74.7735 C 186.3949,74.8132 186.5119,74.8608 186.6111,74.9163 C 186.7102,74.9718 186.7935,75.0274 186.861,75.0829 C 186.9284,75.1384 186.978,75.1821 187.0097,75.2138 L 187.3667,74.5355 C 187.327,74.4958 187.2675,74.4383 187.1882,74.363 C 187.1089,74.2876 187.0018,74.2122 186.8669,74.1368 C 186.732,74.0615 186.5654,73.996 186.3671,73.9405 C 186.1688,73.885 185.9347,73.8572 185.665,73.8572 C 185.308,73.8572 184.9847,73.9167 184.6952,74.0357 C 184.4056,74.1547 184.1597,74.3392 183.9574,74.5891 C 183.7551,74.839 183.5984,75.1563 183.4873,75.5411 C 183.3762,75.9258 183.3207,76.3879 183.3207,76.9274 C 183.3207,77.4351 183.3782,77.8735 183.4933,78.2424 C 183.6083,78.6113 183.765,78.9147 183.9633,79.1527 C 184.1616,79.3907 184.3917,79.5672 184.6535,79.6823 C 184.9153,79.7973 185.1969,79.8548 185.4984,79.8548 C 186.0458,79.8548 186.4742,79.6823 186.7836,79.3372 C 187.093,78.9921 187.2477,78.4744 187.2477,77.7842 z
M 185.4389,79.0694 C 185.0978,79.0694 184.8241,78.9266 184.6178,78.641 C 184.4115,78.3554 184.2925,77.9429 184.2608,77.4034 L 186.3433,77.4034 C 186.3512,77.4431 186.3572,77.5006 186.3612,77.576 C 186.3651,77.6513 186.3671,77.7326 186.3671,77.8199 C 186.3671,78.2166 186.2878,78.524 186.1291,78.7422 C 185.9704,78.9603 185.7404,79.0694 185.4389,79.0694 z
M 192.6265,78.9623 L 191.9125,78.9623 C 192.095,78.6608 192.1862,78.3197 192.1862,77.9389 C 192.1862,77.6374 192.1366,77.3657 192.0375,77.1238 C 191.9383,76.8818 191.7995,76.6775 191.621,76.5109 C 191.4425,76.3443 191.2322,76.2174 190.9903,76.1301 C 190.7483,76.0428 190.4885,75.9992 190.2108,75.9992 C 190.1553,75.9992 190.1037,75.9992 190.0561,75.9992 C 190.0085,75.9992 189.9569,76.0032 189.9014,76.0111 C 189.8062,75.9714 189.707,75.908 189.6039,75.8207 C 189.5008,75.7334 189.4492,75.6184 189.4492,75.4756 C 189.4492,75.3566 189.4948,75.2594 189.5861,75.1841 C 189.6773,75.1087 189.826,75.071 190.0323,75.071 L 190.7582,75.071 C 191.0279,75.071 191.2778,75.0432 191.5079,74.9877 C 191.738,74.9322 191.9383,74.8429 192.1089,74.72 C 192.2794,74.597 192.4123,74.4403 192.5075,74.2499 C 192.6027,74.0595 192.6503,73.8294 192.6503,73.5597 C 192.6503,73.2503 192.5849,72.9687 192.454,72.7148 C 192.3231,72.4609 192.1386,72.2428 191.9006,72.0603 C 191.6626,71.8778 191.373,71.735 191.0319,71.6319 C 190.6908,71.5288 190.31,71.4772 189.8895,71.4772 C 189.2786,71.4772 188.8145,71.6101 188.4972,71.8758 C 188.1799,72.1416 188.0212,72.5244 188.0212,73.0242 C 188.0212,73.2384 188.0589,73.4228 188.1343,73.5775 C 188.2096,73.7322 188.2989,73.8671 188.402,73.9821 C 188.5051,74.0972 188.6103,74.1884 188.7174,74.2559 C 188.8244,74.3233 188.9097,74.3768 188.9732,74.4165 L 188.9732,74.4403 C 188.7273,74.6228 188.6043,74.8885 188.6043,75.2376 C 188.6043,75.3883 188.6341,75.5192 188.6936,75.6303 C 188.7531,75.7414 188.8205,75.8326 188.8959,75.904 C 188.9712,75.9754 189.0466,76.0329 189.122,76.0766 C 189.1973,76.1202 189.2548,76.1499 189.2945,76.1658 L 189.2945,76.1896 C 189.001,76.3245 188.765,76.5367 188.5865,76.8263 C 188.408,77.1158 188.3187,77.4867 188.3187,77.9389 C 188.3187,78.2562 188.3703,78.5359 188.4734,78.7778 C 188.5765,79.0198 188.7154,79.2201 188.8899,79.3788 C 189.0644,79.5375 189.2687,79.6565 189.5028,79.7358 C 189.7368,79.8151 189.9887,79.8548 190.2584,79.8548 C 190.5281,79.8548 190.782,79.8072 191.02,79.712 L 192.7574,79.712 L 192.6265,78.9623 z
M 189.9728,74.1785 C 189.8062,74.1785 189.6594,74.1904 189.5325,74.2142 C 189.4611,74.1745 189.3917,74.1269 189.3243,74.0714 C 189.2568,74.0159 189.1953,73.9484 189.1398,73.8691 C 189.0843,73.7898 189.0387,73.6966 189.003,73.5894 C 188.9673,73.4823 188.9494,73.3574 188.9494,73.2146 C 188.9494,72.6037 189.2866,72.2983 189.9609,72.2983 C 190.54,72.2983 190.9684,72.4113 191.2461,72.6374 C 191.5238,72.8635 191.6626,73.1234 191.6626,73.4169 C 191.6626,73.6946 191.5753,73.8909 191.4008,74.006 C 191.2263,74.121 190.9922,74.1785 190.6987,74.1785 L 189.9728,74.1785 z
M 191.2461,77.9389 C 191.2461,78.3514 191.1489,78.645 190.9546,78.8195 C 190.7602,78.994 190.5321,79.0813 190.2703,79.0813 C 189.9926,79.0813 189.7546,78.994 189.5563,78.8195 C 189.358,78.645 189.2588,78.3514 189.2588,77.9389 C 189.2588,77.5264 189.358,77.2328 189.5563,77.0583 C 189.7546,76.8838 189.9847,76.7965 190.2465,76.7965 C 190.5242,76.7965 190.7602,76.8838 190.9546,77.0583 C 191.1489,77.2328 191.2461,77.5264 191.2461,77.9389 z
M 194.6852,74 L 193.7213,74 L 193.7213,79.712 L 194.6852,79.712 L 194.6852,74 z
M 194.2092,81.0924 C 194.0109,81.0924 193.8522,81.1559 193.7332,81.2828 C 193.6142,81.4097 193.5547,81.5763 193.5547,81.7826 C 193.5547,81.9809 193.6142,82.1436 193.7332,82.2705 C 193.8522,82.3974 194.0109,82.4609 194.2092,82.4609 C 194.3996,82.4609 194.5543,82.3974 194.6733,82.2705 C 194.7923,82.1436 194.8518,81.9809 194.8518,81.7826 C 194.8518,81.5763 194.7923,81.4097 194.6733,81.2828 C 194.5543,81.1559 194.3996,81.0924 194.2092,81.0924 z
M 199.826,77.7842 C 199.826,77.5383 199.8181,77.3261 199.8022,77.1476 C 199.7863,76.9691 199.7705,76.8124 199.7546,76.6775 L 196.8391,76.6775 C 196.8708,76.0032 197.0156,75.5073 197.2735,75.19 C 197.5313,74.8727 197.9022,74.714 198.3861,74.714 C 198.5527,74.714 198.7034,74.7338 198.8383,74.7735 C 198.9732,74.8132 199.0902,74.8608 199.1894,74.9163 C 199.2885,74.9718 199.3718,75.0274 199.4393,75.0829 C 199.5067,75.1384 199.5563,75.1821 199.588,75.2138 L 199.945,74.5355 C 199.9053,74.4958 199.8458,74.4383 199.7665,74.363 C 199.6872,74.2876 199.5801,74.2122 199.4452,74.1368 C 199.3103,74.0615 199.1437,73.996 198.9454,73.9405 C 198.7471,73.885 198.513,73.8572 198.2433,73.8572 C 197.8863,73.8572 197.563,73.9167 197.2735,74.0357 C 196.9839,74.1547 196.738,74.3392 196.5357,74.5891 C 196.3334,74.839 196.1767,75.1563 196.0656,75.5411 C 195.9545,75.9258 195.899,76.3879 195.899,76.9274 C 195.899,77.4351 195.9565,77.8735 196.0716,78.2424 C 196.1866,78.6113 196.3433,78.9147 196.5416,79.1527 C 196.7399,79.3907 196.97,79.5672 197.2318,79.6823 C 197.4936,79.7973 197.7752,79.8548 198.0767,79.8548 C 198.6241,79.8548 199.0525,79.6823 199.3619,79.3372 C 199.6713,78.9921 199.826,78.4744 199.826,77.7842 z
M 198.0172,79.0694 C 197.6761,79.0694 197.4024,78.9266 197.1961,78.641 C 196.9898,78.3554 196.8708,77.9429 196.8391,77.4034 L 198.9216,77.4034 C 198.9295,77.4431 198.9355,77.5006 198.9395,77.576 C 198.9434,77.6513 198.9454,77.7326 198.9454,77.8199 C 198.9454,78.2166 198.8661,78.524 198.7074,78.7422 C 198.5487,78.9603 198.3187,79.0694 198.0172,79.0694 z
M 203.6221,78.8671 C 203.5983,78.883 203.5467,78.9028 203.4674,78.9266 C 203.3881,78.9504 203.281,78.9623 203.1461,78.9623 C 202.8446,78.9623 202.6086,78.881 202.4381,78.7184 C 202.2675,78.5557 202.1465,78.3792 202.0751,78.1888 L 202.0751,74 L 201.1112,74 L 201.1112,79.712 L 201.9918,79.712 L 201.9918,78.9385 L 202.0156,78.9385 C 202.0553,79.0496 202.1068,79.1587 202.1703,79.2658 C 202.2338,79.3729 202.3131,79.4681 202.4083,79.5514 C 202.5035,79.6347 202.6165,79.7001 202.7474,79.7477 C 202.8784,79.7953 203.035,79.8191 203.2175,79.8191 C 203.3524,79.8191 203.4615,79.8072 203.5448,79.7834 C 203.6281,79.7596 203.6935,79.7398 203.7411,79.7239 L 203.6221,78.8671 z
M 208.5725,74 L 207.6919,74 L 207.6919,74.6426 L 207.6681,74.6426 C 207.6443,74.595 207.5927,74.5256 207.5134,74.4344 C 207.4341,74.3431 207.3329,74.2559 207.21,74.1726 C 207.087,74.0893 206.9382,74.0159 206.7637,73.9524 C 206.5892,73.8889 206.3948,73.8572 206.1806,73.8572 C 205.9267,73.8572 205.6987,73.8949 205.4964,73.9702 C 205.2941,74.0456 205.1215,74.1666 204.9787,74.3332 C 204.8359,74.4998 204.7268,74.716 204.6515,74.9818 C 204.5761,75.2475 204.5384,75.5748 204.5384,75.9635 L 204.5384,79.712 L 205.5023,79.712 L 205.5023,76.0349 C 205.5023,75.5589 205.5797,75.2198 205.7344,75.0174 C 205.8891,74.8152 206.129,74.714 206.4543,74.714 C 206.732,74.714 206.966,74.7834 207.1564,74.9223 C 207.3468,75.0611 207.4975,75.1979 207.6086,75.3328 L 207.6086,79.712 L 208.5725,79.712 L 208.5725,74 z
M 213.1659,74 L 213.1659,77.6771 C 213.1659,78.161 213.0846,78.5081 212.922,78.7184 C 212.7593,78.9286 212.5114,79.0337 212.1782,79.0337 C 211.8926,79.0337 211.6546,78.9623 211.4642,78.8195 C 211.2738,78.6767 211.1231,78.5379 211.012,78.403 L 211.012,74 L 210.0481,74 L 210.0481,79.712 L 210.9287,79.712 L 210.9287,79.0694 L 210.9525,79.0694 C 210.9763,79.117 211.0279,79.1864 211.1072,79.2777 C 211.1865,79.3689 211.2897,79.4562 211.4166,79.5395 C 211.5435,79.6228 211.6943,79.6961 211.8688,79.7596 C 212.0433,79.8231 212.2417,79.8548 212.4638,79.8548 C 212.7177,79.8548 212.9477,79.8171 213.154,79.7418 C 213.3603,79.6664 213.5348,79.5454 213.6776,79.3788 C 213.8204,79.2122 213.9315,78.996 214.0108,78.7303 C 214.0901,78.4645 214.1298,78.1372 214.1298,77.7485 L 214.1298,74 L 213.1659,74 z
M 219.6633,78.9623 L 218.9493,78.9623 C 219.1318,78.6608 219.223,78.3197 219.223,77.9389 C 219.223,77.6374 219.1734,77.3657 219.0743,77.1238 C 218.9751,76.8818 218.8363,76.6775 218.6578,76.5109 C 218.4793,76.3443 218.269,76.2174 218.0271,76.1301 C 217.7851,76.0428 217.5253,75.9992 217.2476,75.9992 C 217.1921,75.9992 217.1405,75.9992 217.0929,75.9992 C 217.0453,75.9992 216.9937,76.0032 216.9382,76.0111 C 216.843,75.9714 216.7438,75.908 216.6407,75.8207 C 216.5376,75.7334 216.486,75.6184 216.486,75.4756 C 216.486,75.3566 216.5316,75.2594 216.6229,75.1841 C 216.7141,75.1087 216.8628,75.071 217.0691,75.071 L 217.795,75.071 C 218.0647,75.071 218.3146,75.0432 218.5447,74.9877 C 218.7748,74.9322 218.9751,74.8429 219.1457,74.72 C 219.3162,74.597 219.4491,74.4403 219.5443,74.2499 C 219.6395,74.0595 219.6871,73.8294 219.6871,73.5597 C 219.6871,73.2503 219.6217,72.9687 219.4908,72.7148 C 219.3599,72.4609 219.1754,72.2428 218.9374,72.0603 C 218.6994,71.8778 218.4098,71.735 218.0687,71.6319 C 217.7276,71.5288 217.3468,71.4772 216.9263,71.4772 C 216.3154,71.4772 215.8513,71.6101 215.534,71.8758 C 215.2167,72.1416 215.058,72.5244 215.058,73.0242 C 215.058,73.2384 215.0957,73.4228 215.1711,73.5775 C 215.2464,73.7322 215.3357,73.8671 215.4388,73.9821 C 215.5419,74.0972 215.6471,74.1884 215.7542,74.2559 C 215.8612,74.3233 215.9465,74.3768 216.01,74.4165 L 216.01,74.4403 C 215.7641,74.6228 215.6411,74.8885 215.6411,75.2376 C 215.6411,75.3883 215.6709,75.5192 215.7304,75.6303 C 215.7899,75.7414 215.8573,75.8326 215.9327,75.904 C 216.008,75.9754 216.0834,76.0329 216.1588,76.0766 C 216.2341,76.1202 216.2916,76.1499 216.3313,76.1658 L 216.3313,76.1896 C 216.0378,76.3245 215.8018,76.5367 215.6233,76.8263 C 215.4448,77.1158 215.3555,77.4867 215.3555,77.9389 C 215.3555,78.2562 215.4071,78.5359 215.5102,78.7778 C 215.6133,79.0198 215.7522,79.2201 215.9267,79.3788 C 216.1012,79.5375 216.3055,79.6565 216.5396,79.7358 C 216.7736,79.8151 217.0255,79.8548 217.2952,79.8548 C 217.5649,79.8548 217.8188,79.8072 218.0568,79.712 L 219.7942,79.712 L 219.6633,78.9623 z
M 217.0096,74.1785 C 216.843,74.1785 216.6962,74.1904 216.5693,74.2142 C 216.4979,74.1745 216.4285,74.1269 216.3611,74.0714 C 216.2936,74.0159 216.2321,73.9484 216.1766,73.8691 C 216.1211,73.7898 216.0755,73.6966 216.0398,73.5894 C 216.0041,73.4823 215.9862,73.3574 215.9862,73.2146 C 215.9862,72.6037 216.3234,72.2983 216.9977,72.2983 C 217.5768,72.2983 218.0052,72.4113 218.2829,72.6374 C 218.5606,72.8635 218.6994,73.1234 218.6994,73.4169 C 218.6994,73.6946 218.6121,73.8909 218.4376,74.006 C 218.2631,74.121 218.029,74.1785 217.7355,74.1785 L 217.0096,74.1785 z
M 218.2829,77.9389 C 218.2829,78.3514 218.1857,78.645 217.9914,78.8195 C 217.797,78.994 217.5689,79.0813 217.3071,79.0813 C 217.0294,79.0813 216.7914,78.994 216.5931,78.8195 C 216.3948,78.645 216.2956,78.3514 216.2956,77.9389 C 216.2956,77.5264 216.3948,77.2328 216.5931,77.0583 C 216.7914,76.8838 217.0215,76.7965 217.2833,76.7965 C 217.561,76.7965 217.797,76.8838 217.9914,77.0583 C 218.1857,77.2328 218.2829,77.5264 218.2829,77.9389 z
M 65.6416,66.9266 L 64.4754,66.9266 L 64.4754,62 L 63.5115,62 L 63.5115,66.9266 L 62.8213,66.9266 L 62.8213,67.5692 L 63.5115,67.7001 L 63.5115,68.8425 C 63.5115,69.1519 63.5551,69.4177 63.6424,69.6398 C 63.7297,69.8619 63.8447,70.0444 63.9875,70.1872 C 64.1303,70.33 64.2969,70.4331 64.4873,70.4966 C 64.6777,70.5601 64.88,70.5918 65.0942,70.5918 C 65.3005,70.5918 65.475,70.564 65.6178,70.5085 C 65.7606,70.453 65.8558,70.4093 65.9034,70.3776 L 65.7011,69.5803 C 65.6535,69.612 65.5861,69.6458 65.4988,69.6815 C 65.4115,69.7172 65.3044,69.735 65.1775,69.735 C 64.9474,69.735 64.7729,69.6636 64.6539,69.5208 C 64.5349,69.378 64.4754,69.1162 64.4754,68.7354 L 64.4754,67.712 L 65.7606,67.712 L 65.6416,66.9266 z
M 70.592,62 L 69.7114,62 L 69.7114,62.6426 L 69.6876,62.6426 C 69.6638,62.595 69.6122,62.5256 69.5329,62.4344 C 69.4536,62.3431 69.3524,62.2559 69.2295,62.1726 C 69.1065,62.0893 68.9577,62.0159 68.7832,61.9524 C 68.6087,61.8889 68.4143,61.8572 68.2001,61.8572 C 67.9462,61.8572 67.7182,61.8949 67.5159,61.9702 C 67.3136,62.0456 67.141,62.1666 66.9982,62.3332 C 66.8554,62.4998 66.7463,62.716 66.671,62.9818 C 66.5956,63.2475 66.5579,63.5748 66.5579,63.9635 L 66.5579,67.712 L 67.5218,67.712 L 67.5218,64.0349 C 67.5218,63.5589 67.5992,63.2198 67.7539,63.0174 C 67.9086,62.8152 68.1485,62.714 68.4738,62.714 C 68.7515,62.714 68.9855,62.7834 69.1759,62.9223 C 69.3663,63.0611 69.517,63.1979 69.6281,63.3328 L 69.6281,67.712 L 70.592,67.712 L 70.592,62 z
M 68.2239,69.3542 C 68.2239,69.1717 68.1684,69.025 68.0573,68.9139 C 67.9462,68.8028 67.8114,68.7473 67.6527,68.7473 C 67.494,68.7473 67.3592,68.8028 67.2481,68.9139 C 67.137,69.025 67.0815,69.1717 67.0815,69.3542 C 67.0815,69.5367 67.137,69.6834 67.2481,69.7945 C 67.3592,69.9056 67.494,69.9611 67.6527,69.9611 C 67.8114,69.9611 67.9462,69.9056 68.0573,69.7945 C 68.1684,69.6834 68.2239,69.5367 68.2239,69.3542 z
M 70.0565,69.3542 C 70.0565,69.1717 70.001,69.025 69.8899,68.9139 C 69.7788,68.8028 69.644,68.7473 69.4853,68.7473 C 69.3266,68.7473 69.1918,68.8028 69.0807,68.9139 C 68.9696,69.025 68.9141,69.1717 68.9141,69.3542 C 68.9141,69.5367 68.9696,69.6834 69.0807,69.7945 C 69.1918,69.9056 69.3266,69.9611 69.4853,69.9611 C 69.644,69.9611 69.7788,69.9056 69.8899,69.7945 C 70.001,69.6834 70.0565,69.5367 70.0565,69.3542 z
M 74.5785,66.8671 C 74.5547,66.883 74.5031,66.9028 74.4238,66.9266 C 74.3445,66.9504 74.2374,66.9623 74.1025,66.9623 C 73.801,66.9623 73.565,66.881 73.3945,66.7184 C 73.2239,66.5557 73.1029,66.3792 73.0315,66.1888 L 73.0315,62 L 72.0676,62 L 72.0676,67.712 L 72.9482,67.712 L 72.9482,66.9385 L 72.972,66.9385 C 73.0117,67.0496 73.0632,67.1587 73.1267,67.2658 C 73.1902,67.3729 73.2695,67.4681 73.3647,67.5514 C 73.4599,67.6347 73.5729,67.7001 73.7038,67.7477 C 73.8348,67.7953 73.9914,67.8191 74.1739,67.8191 C 74.3088,67.8191 74.4179,67.8072 74.5012,67.7834 C 74.5845,67.7596 74.6499,67.7398 74.6975,67.7239 L 74.5785,66.8671 z
M 80.5047,66.2007 L 83.2893,62 L 82.016,62 L 79.636,65.7366 L 79.0172,65.7366 L 79.0172,62 L 77.9819,62 L 77.9819,70.211 L 79.0172,70.211 L 79.0172,66.5577 L 79.6479,66.5577 L 81.9446,70.211 L 83.0989,70.211 L 80.5047,66.2007 z
M 87.966,62 L 87.0854,62 L 87.0854,62.6426 L 87.0616,62.6426 C 87.0378,62.595 86.9862,62.5256 86.9069,62.4344 C 86.8276,62.3431 86.7264,62.2559 86.6035,62.1726 C 86.4805,62.0893 86.3317,62.0159 86.1572,61.9524 C 85.9827,61.8889 85.7883,61.8572 85.5741,61.8572 C 85.3202,61.8572 85.0922,61.8949 84.8899,61.9702 C 84.6876,62.0456 84.515,62.1666 84.3722,62.3332 C 84.2294,62.4998 84.1203,62.716 84.045,62.9818 C 83.9696,63.2475 83.9319,63.5748 83.9319,63.9635 L 83.9319,67.712 L 84.8958,67.712 L 84.8958,64.0349 C 84.8958,63.5589 84.9732,63.2198 85.1279,63.0174 C 85.2826,62.8152 85.5225,62.714 85.8478,62.714 C 86.1255,62.714 86.3595,62.7834 86.5499,62.9223 C 86.7403,63.0611 86.891,63.1979 87.0021,63.3328 L 87.0021,67.712 L 87.966,67.712 L 87.966,62 z
M 90.3936,63.3328 C 90.3936,63.0948 90.4273,62.9282 90.4948,62.833 C 90.5622,62.7378 90.6792,62.6902 90.8458,62.6902 C 90.9331,62.6902 91.0065,62.6981 91.066,62.714 C 91.1255,62.7299 91.1711,62.7457 91.2028,62.7616 L 91.2861,62.0476 C 91.2385,62.0238 91.1512,61.9921 91.0243,61.9524 C 90.8974,61.9127 90.7268,61.8929 90.5126,61.8929 C 90.1873,61.8929 89.9255,61.9921 89.7272,62.1904 C 89.5289,62.3887 89.4297,62.7418 89.4297,63.2495 L 89.4297,70.4133 L 90.3936,70.5204 L 90.3936,63.3328 z
M 94.5943,66.9266 L 93.3448,66.9266 L 93.3448,63.7612 C 93.3448,63.3566 93.3964,63.0809 93.4995,62.9342 C 93.6026,62.7874 93.7772,62.714 94.0231,62.714 C 94.1659,62.714 94.2889,62.7338 94.392,62.7735 C 94.4951,62.8132 94.5705,62.8489 94.6181,62.8806 L 94.749,62.1071 C 94.7093,62.0754 94.6141,62.0258 94.4634,61.9583 C 94.3127,61.8909 94.1104,61.8572 93.8565,61.8572 C 93.3646,61.8572 92.9957,61.994 92.7498,62.2678 C 92.5039,62.5414 92.3809,62.9956 92.3809,63.6303 L 92.3809,66.9266 L 91.6907,66.9266 L 91.6907,67.5692 L 92.3809,67.712 L 92.488,69.3066 L 93.3448,69.3066 L 93.3448,67.712 L 94.7133,67.712 L 94.5943,66.9266 z
M 99.6875,62 L 98.8069,62 L 98.8069,62.6426 L 98.7831,62.6426 C 98.7593,62.595 98.7077,62.5256 98.6284,62.4344 C 98.5491,62.3431 98.4479,62.2559 98.325,62.1726 C 98.202,62.0893 98.0532,62.0159 97.8787,61.9524 C 97.7042,61.8889 97.5098,61.8572 97.2956,61.8572 C 97.0417,61.8572 96.8137,61.8949 96.6114,61.9702 C 96.4091,62.0456 96.2365,62.1666 96.0937,62.3332 C 95.9509,62.4998 95.8418,62.716 95.7665,62.9818 C 95.6911,63.2475 95.6534,63.5748 95.6534,63.9635 L 95.6534,67.712 L 96.6173,67.712 L 96.6173,64.0349 C 96.6173,63.5589 96.6947,63.2198 96.8494,63.0174 C 97.0041,62.8152 97.244,62.714 97.5693,62.714 C 97.847,62.714 98.081,62.7834 98.2714,62.9223 C 98.4618,63.0611 98.6125,63.1979 98.7236,63.3328 L 98.7236,67.712 L 99.6875,67.712 L 99.6875,62 z
M 103.674,66.8671 C 103.6502,66.883 103.5986,66.9028 103.5193,66.9266 C 103.44,66.9504 103.3329,66.9623 103.198,66.9623 C 102.8965,66.9623 102.6605,66.881 102.49,66.7184 C 102.3194,66.5557 102.1984,66.3792 102.127,66.1888 L 102.127,62 L 101.1631,62 L 101.1631,67.712 L 102.0437,67.712 L 102.0437,66.9385 L 102.0675,66.9385 C 102.1072,67.0496 102.1587,67.1587 102.2222,67.2658 C 102.2857,67.3729 102.365,67.4681 102.4602,67.5514 C 102.5554,67.6347 102.6684,67.7001 102.7993,67.7477 C 102.9303,67.7953 103.0869,67.8191 103.2694,67.8191 C 103.4043,67.8191 103.5134,67.8072 103.5967,67.7834 C 103.68,67.7596 103.7454,67.7398 103.793,67.7239 L 103.674,66.8671 z
M 110.8735,62 L 109.9929,62 L 109.9929,62.6426 L 109.9691,62.6426 C 109.9453,62.595 109.8937,62.5256 109.8144,62.4344 C 109.7351,62.3431 109.6339,62.2559 109.511,62.1726 C 109.388,62.0893 109.2392,62.0159 109.0647,61.9524 C 108.8902,61.8889 108.6958,61.8572 108.4816,61.8572 C 108.2277,61.8572 107.9997,61.8949 107.7974,61.9702 C 107.5951,62.0456 107.4225,62.1666 107.2797,62.3332 C 107.1369,62.4998 107.0278,62.716 106.9525,62.9818 C 106.8771,63.2475 106.8394,63.5748 106.8394,63.9635 L 106.8394,67.712 L 107.8033,67.712 L 107.8033,64.0349 C 107.8033,63.5589 107.8807,63.2198 108.0354,63.0174 C 108.1901,62.8152 108.43,62.714 108.7553,62.714 C 109.033,62.714 109.267,62.7834 109.4574,62.9223 C 109.6478,63.0611 109.7985,63.1979 109.9096,63.3328 L 109.9096,67.712 L 110.8735,67.712 L 110.8735,62 z
M 115.4669,62 L 115.4669,65.6771 C 115.4669,66.161 115.3856,66.5081 115.223,66.7184 C 115.0603,66.9286 114.8124,67.0337 114.4792,67.0337 C 114.1936,67.0337 113.9556,66.9623 113.7652,66.8195 C 113.5748,66.6767 113.4241,66.5379 113.313,66.403 L 113.313,62 L 112.3491,62 L 112.3491,67.712 L 113.2297,67.712 L 113.2297,67.0694 L 113.2535,67.0694 C 113.2773,67.117 113.3289,67.1864 113.4082,67.2777 C 113.4875,67.3689 113.5907,67.4562 113.7176,67.5395 C 113.8445,67.6228 113.9953,67.6961 114.1698,67.7596 C 114.3443,67.8231 114.5427,67.8548 114.7648,67.8548 C 115.0187,67.8548 115.2487,67.8171 115.455,67.7418 C 115.6613,67.6664 115.8358,67.5454 115.9786,67.3788 C 116.1214,67.2122 116.2325,66.996 116.3118,66.7303 C 116.3911,66.4645 116.4308,66.1372 116.4308,65.7485 L 116.4308,62 L 115.4669,62 z
M 117.6089,64.7727 C 117.6089,65.3518 117.6843,65.8358 117.835,66.2245 C 117.9857,66.6132 118.1801,66.9266 118.4181,67.1646 C 118.6561,67.4026 118.9258,67.5712 119.2273,67.6704 C 119.5288,67.7695 119.8302,67.8191 120.1317,67.8191 C 120.3142,67.8191 120.4728,67.8052 120.6077,67.7774 C 120.7426,67.7497 120.8536,67.716 120.9409,67.6763 L 120.9409,70.4133 L 121.9048,70.5204 L 121.9048,62 L 121.0242,62 L 121.0242,62.6069 L 121.0004,62.6069 C 120.9766,62.5593 120.933,62.4939 120.8695,62.4106 C 120.806,62.3273 120.7188,62.244 120.6077,62.1607 C 120.4966,62.0774 120.3578,62.006 120.1912,61.9464 C 120.0246,61.8869 119.8302,61.8572 119.6081,61.8572 C 119.3384,61.8572 119.0825,61.9107 118.8406,62.0179 C 118.5986,62.125 118.3864,62.2955 118.2039,62.5296 C 118.0214,62.7636 117.8767,63.0651 117.7696,63.434 C 117.6625,63.8029 117.6089,64.2491 117.6089,64.7727 z
M 119.8699,62.714 C 120.0206,62.714 120.1555,62.7338 120.2745,62.7735 C 120.3935,62.8132 120.4966,62.8628 120.5839,62.9223 C 120.6712,62.9818 120.7446,63.0432 120.8041,63.1067 C 120.8636,63.1702 120.9092,63.2257 120.9409,63.2733 L 120.9409,66.7957 C 120.8536,66.8512 120.7525,66.8988 120.6375,66.9385 C 120.5224,66.9782 120.3776,66.998 120.2031,66.998 C 119.981,66.998 119.7727,66.9603 119.5784,66.885 C 119.384,66.8096 119.2154,66.6846 119.0726,66.5101 C 118.9298,66.3356 118.8168,66.1095 118.7335,65.8318 C 118.6502,65.5541 118.6085,65.213 118.6085,64.8084 C 118.6085,64.4117 118.6422,64.0805 118.7097,63.8148 C 118.7771,63.549 118.8703,63.3348 118.9893,63.1722 C 119.1083,63.0095 119.2432,62.8925 119.3939,62.8211 C 119.5446,62.7497 119.7033,62.714 119.8699,62.714 z
M 132.948,70.211 L 132.948,62 L 131.9484,62 L 131.9484,65.9032 C 131.9484,66.1491 131.9484,66.3911 131.9484,66.6291 C 131.9484,66.8671 131.9504,67.0892 131.9544,67.2955 C 131.9583,67.5018 131.9643,67.6842 131.9722,67.8429 C 131.9801,68.0016 131.9881,68.1245 131.996,68.2118 L 131.9603,68.2118 C 131.9206,68.0293 131.8393,67.7338 131.7164,67.3253 C 131.5934,66.9167 131.4526,66.4784 131.2939,66.0103 L 129.9373,62 L 129.1162,62 L 127.7596,66.0103 C 127.6009,66.4784 127.4601,66.9167 127.3372,67.3253 C 127.2142,67.7338 127.1329,68.0293 127.0932,68.2118 L 127.0575,68.2118 C 127.0654,68.1166 127.0734,67.9897 127.0813,67.831 C 127.0892,67.6723 127.0952,67.4919 127.0992,67.2896 C 127.1031,67.0873 127.1051,66.8671 127.1051,66.6291 C 127.1051,66.3911 127.1051,66.1491 127.1051,65.9032 L 127.1051,62 L 126.1055,62 L 126.1055,70.211 L 127.2598,70.211 L 129.1995,64.5466 C 129.2868,64.2848 129.3641,64.029 129.4316,63.7791 C 129.499,63.5292 129.5406,63.313 129.5565,63.1305 L 129.5803,63.1305 C 129.5882,63.313 129.6259,63.5272 129.6934,63.7731 C 129.7608,64.019 129.8381,64.2729 129.9254,64.5347 L 131.8651,70.211 L 132.948,70.211 z
M 138.2435,65.7842 C 138.2435,65.5383 138.2356,65.3261 138.2197,65.1476 C 138.2038,64.9691 138.188,64.8124 138.1721,64.6775 L 135.2566,64.6775 C 135.2883,64.0032 135.4331,63.5073 135.691,63.19 C 135.9488,62.8727 136.3197,62.714 136.8036,62.714 C 136.9702,62.714 137.1209,62.7338 137.2558,62.7735 C 137.3907,62.8132 137.5077,62.8608 137.6069,62.9163 C 137.706,62.9718 137.7893,63.0274 137.8568,63.0829 C 137.9242,63.1384 137.9738,63.1821 138.0055,63.2138 L 138.3625,62.5355 C 138.3228,62.4958 138.2633,62.4383 138.184,62.363 C 138.1047,62.2876 137.9976,62.2122 137.8627,62.1368 C 137.7278,62.0615 137.5612,61.996 137.3629,61.9405 C 137.1646,61.885 136.9305,61.8572 136.6608,61.8572 C 136.3038,61.8572 135.9805,61.9167 135.691,62.0357 C 135.4014,62.1547 135.1555,62.3392 134.9532,62.5891 C 134.7509,62.839 134.5942,63.1563 134.4831,63.5411 C 134.372,63.9258 134.3165,64.3879 134.3165,64.9274 C 134.3165,65.4351 134.374,65.8735 134.4891,66.2424 C 134.6041,66.6113 134.7608,66.9147 134.9591,67.1527 C 135.1574,67.3907 135.3875,67.5672 135.6493,67.6823 C 135.9111,67.7973 136.1927,67.8548 136.4942,67.8548 C 137.0416,67.8548 137.47,67.6823 137.7794,67.3372 C 138.0888,66.9921 138.2435,66.4744 138.2435,65.7842 z
M 136.4347,67.0694 C 136.0936,67.0694 135.8199,66.9266 135.6136,66.641 C 135.4073,66.3554 135.2883,65.9429 135.2566,65.4034 L 137.3391,65.4034 C 137.347,65.4431 137.353,65.5006 137.357,65.576 C 137.3609,65.6513 137.3629,65.7326 137.3629,65.8199 C 137.3629,66.2166 137.2836,66.524 137.1249,66.7422 C 136.9662,66.9603 136.7362,67.0694 136.4347,67.0694 z
M 139.2669,64.7727 C 139.2669,65.3518 139.3423,65.8358 139.493,66.2245 C 139.6437,66.6132 139.8381,66.9266 140.0761,67.1646 C 140.3141,67.4026 140.5838,67.5712 140.8853,67.6704 C 141.1868,67.7695 141.4882,67.8191 141.7897,67.8191 C 141.9722,67.8191 142.1308,67.8052 142.2657,67.7774 C 142.4006,67.7497 142.5116,67.716 142.5989,67.6763 L 142.5989,70.4133 L 143.5628,70.5204 L 143.5628,62 L 142.6822,62 L 142.6822,62.6069 L 142.6584,62.6069 C 142.6346,62.5593 142.591,62.4939 142.5275,62.4106 C 142.464,62.3273 142.3768,62.244 142.2657,62.1607 C 142.1546,62.0774 142.0158,62.006 141.8492,61.9464 C 141.6826,61.8869 141.4882,61.8572 141.2661,61.8572 C 140.9964,61.8572 140.7405,61.9107 140.4986,62.0179 C 140.2566,62.125 140.0444,62.2955 139.8619,62.5296 C 139.6794,62.7636 139.5347,63.0651 139.4276,63.434 C 139.3205,63.8029 139.2669,64.2491 139.2669,64.7727 z
M 141.5279,62.714 C 141.6786,62.714 141.8135,62.7338 141.9325,62.7735 C 142.0515,62.8132 142.1546,62.8628 142.2419,62.9223 C 142.3292,62.9818 142.4026,63.0432 142.4621,63.1067 C 142.5216,63.1702 142.5672,63.2257 142.5989,63.2733 L 142.5989,66.7957 C 142.5116,66.8512 142.4105,66.8988 142.2955,66.9385 C 142.1804,66.9782 142.0356,66.998 141.8611,66.998 C 141.639,66.998 141.4307,66.9603 141.2364,66.885 C 141.042,66.8096 140.8734,66.6846 140.7306,66.5101 C 140.5878,66.3356 140.4748,66.1095 140.3915,65.8318 C 140.3082,65.5541 140.2665,65.213 140.2665,64.8084 C 140.2665,64.4117 140.3002,64.0805 140.3677,63.8148 C 140.4351,63.549 140.5283,63.3348 140.6473,63.1722 C 140.7663,63.0095 140.9012,62.8925 141.0519,62.8211 C 141.2026,62.7497 141.3613,62.714 141.5279,62.714 z
M 146.0023,62 L 145.0384,62 L 145.0384,67.712 L 146.0023,67.712 L 146.0023,62 z
M 145.5263,69.0924 C 145.328,69.0924 145.1693,69.1559 145.0503,69.2828 C 144.9313,69.4097 144.8718,69.5763 144.8718,69.7826 C 144.8718,69.9809 144.9313,70.1436 145.0503,70.2705 C 145.1693,70.3974 145.328,70.4609 145.5263,70.4609 C 145.7167,70.4609 145.8714,70.3974 145.9904,70.2705 C 146.1094,70.1436 146.1689,69.9809 146.1689,69.7826 C 146.1689,69.5763 146.1094,69.4097 145.9904,69.2828 C 145.8714,69.1559 145.7167,69.0924 145.5263,69.0924 z
M 151.1431,65.7842 C 151.1431,65.5383 151.1352,65.3261 151.1193,65.1476 C 151.1034,64.9691 151.0876,64.8124 151.0717,64.6775 L 148.1562,64.6775 C 148.1879,64.0032 148.3327,63.5073 148.5906,63.19 C 148.8484,62.8727 149.2193,62.714 149.7032,62.714 C 149.8698,62.714 150.0205,62.7338 150.1554,62.7735 C 150.2903,62.8132 150.4073,62.8608 150.5065,62.9163 C 150.6056,62.9718 150.6889,63.0274 150.7564,63.0829 C 150.8238,63.1384 150.8734,63.1821 150.9051,63.2138 L 151.2621,62.5355 C 151.2224,62.4958 151.1629,62.4383 151.0836,62.363 C 151.0043,62.2876 150.8972,62.2122 150.7623,62.1368 C 150.6274,62.0615 150.4608,61.996 150.2625,61.9405 C 150.0642,61.885 149.8301,61.8572 149.5604,61.8572 C 149.2034,61.8572 148.8801,61.9167 148.5906,62.0357 C 148.301,62.1547 148.0551,62.3392 147.8528,62.5891 C 147.6505,62.839 147.4938,63.1563 147.3827,63.5411 C 147.2716,63.9258 147.2161,64.3879 147.2161,64.9274 C 147.2161,65.4351 147.2736,65.8735 147.3887,66.2424 C 147.5037,66.6113 147.6604,66.9147 147.8587,67.1527 C 148.057,67.3907 148.2871,67.5672 148.5489,67.6823 C 148.8107,67.7973 149.0923,67.8548 149.3938,67.8548 C 149.9412,67.8548 150.3696,67.6823 150.679,67.3372 C 150.9884,66.9921 151.1431,66.4744 151.1431,65.7842 z
M 149.3343,67.0694 C 148.9932,67.0694 148.7195,66.9266 148.5132,66.641 C 148.3069,66.3554 148.1879,65.9429 148.1562,65.4034 L 150.2387,65.4034 C 150.2466,65.4431 150.2526,65.5006 150.2566,65.576 C 150.2605,65.6513 150.2625,65.7326 150.2625,65.8199 C 150.2625,66.2166 150.1832,66.524 150.0245,66.7422 C 149.8658,66.9603 149.6358,67.0694 149.3343,67.0694 z
M 155.5461,62 L 155.5461,65.6771 C 155.5461,66.161 155.4648,66.5081 155.3022,66.7184 C 155.1395,66.9286 154.8916,67.0337 154.5584,67.0337 C 154.2728,67.0337 154.0348,66.9623 153.8444,66.8195 C 153.654,66.6767 153.5033,66.5379 153.3922,66.403 L 153.3922,62 L 152.4283,62 L 152.4283,67.712 L 153.3089,67.712 L 153.3089,67.0694 L 153.3327,67.0694 C 153.3565,67.117 153.4081,67.1864 153.4874,67.2777 C 153.5667,67.3689 153.6699,67.4562 153.7968,67.5395 C 153.9237,67.6228 154.0745,67.6961 154.249,67.7596 C 154.4235,67.8231 154.6219,67.8548 154.844,67.8548 C 155.0979,67.8548 155.3279,67.8171 155.5342,67.7418 C 155.7405,67.6664 155.915,67.5454 156.0578,67.3788 C 156.2006,67.2122 156.3117,66.996 156.391,66.7303 C 156.4703,66.4645 156.51,66.1372 156.51,65.7485 L 156.51,62 L 155.5461,62 z
" fill="#000000"/>
  </g>
  <g id="Adler-und-Saeulenelement">
    <path d="M37.173,29.339 C37.2,29.115 37.216,28.884 37.216,28.648 C37.216,28.519 37.217,28.369 37.201,28.199 C39.194,28.171 40.942,26.735 40.942,25.084 C40.942,24.244 40.394,23.61 40.085,23.231 C40.154,23.216 40.224,23.2 40.295,23.183 C40.587,23.437 41.415,24.339 41.415,25.478 C41.415,27.459 39.435,29.298 37.173,29.339 M35.165,22.44 C35.128,22.219 35.044,22.019 34.916,21.847 C34.923,21.645 35.006,21.452 35.331,21.611 C35.155,21.791 35.291,22.11 35.291,22.11 C35.291,22.11 35.651,21.943 35.576,21.705 C36.11,21.833 35.726,22.55 35.165,22.44 M34.702,23.457 C34.631,23.161 34.479,22.857 34.286,22.628 C34.11,22.42 33.819,22.173 33.427,22.173 C33.248,22.173 32.948,22.257 32.757,22.338 C32.686,22.208 32.547,21.895 32.547,21.754 C32.547,21.609 32.792,21.462 33.261,21.462 C34.293,21.462 34.909,21.928 34.909,22.71 C34.909,22.985 34.8,23.235 34.702,23.457 M37.352,36.757 C37.472,36.757 37.53,36.776 37.6,36.802 C37.897,37.61 39.042,39.135 39.09,39.2 L39.1,39.214 L39.117,39.21 C39.398,39.165 40.115,39.057 40.715,39.057 L40.729,39.057 C40.794,39.057 40.868,39.057 40.915,39.103 C40.954,39.142 40.973,39.21 40.973,39.307 C40.973,39.456 40.91,39.711 40.834,39.82 C40.624,39.591 40.283,39.488 39.737,39.488 C39.573,39.488 39.379,39.537 39.274,39.565 L39.231,39.574 L39.182,39.587 L39.497,39.902 C39.983,40.388 40.403,40.807 40.403,41.086 C40.403,41.254 40.239,41.473 40.089,41.57 C40.056,41.059 39.54,40.375 39.037,39.992 L38.994,39.96 L38.986,40.14 C38.979,40.262 38.968,40.445 38.968,40.641 C38.968,41.614 38.869,41.762 38.532,41.762 C38.48,41.762 38.401,41.747 38.352,41.729 C38.542,41.494 38.617,41.184 38.617,40.64 L38.614,40.389 L38.611,40.187 C38.611,39.964 38.634,39.799 38.652,39.666 L38.662,39.591 L38.609,39.584 C38.451,39.562 38.158,39.522 37.934,39.522 C37.453,39.522 37.127,39.566 36.891,39.788 C36.735,39.662 36.575,39.445 36.575,39.308 C36.575,39.105 36.701,39.089 36.867,39.089 C36.951,39.089 37.029,39.101 37.137,39.114 C37.344,39.145 37.655,39.191 38.296,39.191 L38.336,39.191 L38.323,39.152 C38.161,38.687 37.715,38.011 37,37.142 C37.064,36.909 37.127,36.757 37.352,36.757 M31.178,39.152 L31.165,39.191 L31.205,39.191 C31.845,39.191 32.157,39.145 32.364,39.114 C32.472,39.101 32.55,39.089 32.634,39.089 C32.799,39.089 32.926,39.105 32.926,39.308 C32.926,39.445 32.766,39.662 32.611,39.788 C32.374,39.566 32.048,39.522 31.568,39.522 C31.343,39.522 31.049,39.562 30.892,39.584 L30.867,39.587 L30.839,39.591 L30.848,39.666 C30.867,39.799 30.89,39.964 30.89,40.187 L30.887,40.389 L30.884,40.64 C30.884,41.184 30.959,41.494 31.15,41.729 C31.1,41.747 31.021,41.762 30.969,41.762 C30.631,41.762 30.533,41.614 30.533,40.641 C30.533,40.445 30.523,40.262 30.516,40.14 L30.506,39.959 L30.464,39.992 C29.962,40.375 29.444,41.059 29.413,41.57 C29.262,41.473 29.098,41.254 29.098,41.086 C29.098,40.807 29.518,40.388 30.004,39.902 L30.283,39.623 L30.319,39.587 L30.227,39.565 C30.122,39.537 29.928,39.488 29.763,39.488 C29.218,39.488 28.878,39.591 28.667,39.82 C28.591,39.711 28.528,39.456 28.528,39.307 C28.528,39.21 28.547,39.142 28.586,39.103 C28.633,39.057 28.707,39.057 28.772,39.057 L28.786,39.057 C29.386,39.057 30.104,39.165 30.384,39.21 L30.401,39.214 L30.411,39.2 C30.46,39.135 31.604,37.61 31.902,36.802 C31.97,36.776 32.029,36.757 32.149,36.757 C32.374,36.757 32.437,36.909 32.502,37.142 C31.786,38.011 31.34,38.687 31.178,39.152 M28.086,25.478 C28.086,24.339 28.915,23.437 29.207,23.183 C29.277,23.2 29.347,23.216 29.417,23.231 C29.107,23.61 28.559,24.244 28.559,25.084 C28.559,26.752 30.341,28.2 32.359,28.2 C32.346,28.343 32.339,28.493 32.339,28.648 C32.339,28.894 32.353,29.123 32.377,29.339 C30.095,29.325 28.086,27.473 28.086,25.478 M43.392,28.991 C44.416,30.61 45.217,30.583 46.427,30.583 C45.426,29.816 44.764,28.833 44.448,28.331 L42.578,25.339 C42.396,24.415 41.918,23.551 41.202,22.908 C41.443,22.817 41.643,22.721 41.763,22.63 C40.542,22.63 39.332,22.01 38.666,22.01 C38.238,22.01 37.963,22.266 37.963,22.604 C37.99,22.981 38.378,23.364 39.095,23.364 C39.257,23.364 39.465,23.343 39.693,23.305 C40.081,23.846 40.394,24.335 40.394,25.033 C40.394,26.343 38.828,27.364 37.247,27.364 C37.157,27.364 37.072,27.36 36.983,27.354 C36.84,27.029 36.363,26.484 36.363,25.864 C36.363,24.823 37.042,23.973 37.042,22.942 C37.042,22.301 36.73,21.904 36.61,21.739 C36.804,21.559 37.016,21.338 37.066,21.186 C36.953,21.235 36.819,21.241 36.624,21.241 C35.866,21.241 35.248,21.044 34.646,21.044 C34.302,21.044 34.21,21.15 34.21,21.251 C34.21,21.288 34.215,21.326 34.225,21.344 C34.097,21.294 33.977,21.261 33.834,21.235 C33.656,21.201 33.465,21.184 33.261,21.184 C32.529,21.184 32.269,21.491 32.269,21.754 C32.269,21.976 32.444,22.382 32.643,22.692 C32.928,22.548 33.271,22.451 33.427,22.451 C33.816,22.451 34.161,22.821 34.344,23.259 C34.083,23.291 34.033,23.302 33.769,23.302 C33.056,23.302 32.571,23.047 32.471,23.047 C32.462,23.047 32.443,23.052 32.443,23.068 C32.443,23.168 32.645,23.432 33.043,23.577 C33.568,23.769 34.354,23.849 34.485,23.871 C34.485,23.894 34.352,24.142 34.203,24.19 C34.172,24.2 34.147,24.201 34.11,24.193 C33.562,24.085 33.409,24.039 32.714,23.775 C32.693,23.767 32.68,23.78 32.68,23.802 C32.68,24.077 33.392,24.684 34.03,24.917 C33.497,25.597 32.832,26.293 32.518,27.354 C32.429,27.36 32.343,27.364 32.254,27.364 C30.673,27.364 29.107,26.343 29.107,25.033 C29.107,24.335 29.42,23.846 29.808,23.305 C30.036,23.343 30.243,23.364 30.406,23.364 C31.123,23.364 31.511,22.981 31.539,22.604 C31.539,22.266 31.264,22.01 30.835,22.01 C30.169,22.01 28.96,22.63 27.737,22.63 C27.858,22.721 28.058,22.817 28.298,22.908 C27.583,23.551 27.105,24.415 26.923,25.339 L25.053,28.331 C24.738,28.833 24.074,29.816 23.073,30.583 C24.283,30.583 25.085,30.61 26.109,28.991 L27.068,27.457 C27.139,27.656 27.226,27.85 27.329,28.04 L25.422,31.091 C25.105,31.597 24.447,32.571 23.442,33.343 C24.652,33.343 25.454,33.371 26.478,31.753 L28.119,29.125 C28.242,29.256 28.371,29.384 28.507,29.506 L26.191,33.214 C25.873,33.721 25.219,34.693 24.212,35.464 C25.422,35.464 26.224,35.493 27.247,33.874 L29.505,30.259 C29.654,30.353 29.806,30.444 29.964,30.53 L27.207,34.941 C26.889,35.448 26.235,36.417 25.228,37.191 C26.438,37.191 27.24,37.219 28.264,35.601 L31.102,31.058 C31.27,31.122 31.44,31.184 31.613,31.239 L28.406,36.372 C28.093,36.872 27.424,37.859 26.428,38.622 C27.637,38.622 28.44,38.65 29.463,37.032 L32.881,31.562 C32.916,31.568 32.95,31.573 32.984,31.58 C33.077,31.876 33.142,32.152 33.142,32.427 C33.142,34.146 32.014,35.664 30.66,36.836 C30.747,36.874 30.898,36.887 31.037,36.887 C31.317,36.887 31.497,36.872 31.624,36.85 C31.31,37.563 30.636,38.484 30.296,38.96 C29.853,38.88 29.208,38.818 28.786,38.818 C28.344,38.818 28.294,39.076 28.294,39.307 C28.294,39.708 28.482,40.027 28.7,40.205 C28.782,40 28.947,39.726 29.763,39.726 C29.779,39.726 29.807,39.728 29.845,39.731 C29.607,39.996 28.86,40.6 28.86,41.086 C28.86,41.408 29.213,41.891 29.678,41.891 C29.651,41.787 29.654,41.692 29.654,41.62 C29.654,41.226 30.003,40.765 30.298,40.443 C30.289,40.539 30.294,40.529 30.294,40.641 C30.294,41.572 30.378,42 30.969,42 C31.259,42 31.459,41.841 31.528,41.793 C31.144,41.44 31.124,41.162 31.124,40.64 C31.125,40.504 31.126,40.371 31.128,40.188 C31.129,40.068 31.127,39.91 31.108,39.796 C31.319,39.767 31.405,39.767 31.568,39.767 C31.568,39.767 32.407,39.7 32.61,40.137 C32.838,39.928 33.169,39.633 33.169,39.308 C33.169,39.093 33.067,38.85 32.634,38.85 C32.47,38.85 31.955,38.95 31.524,38.95 C31.64,38.693 32.155,37.939 32.602,37.392 C32.67,37.604 32.775,37.833 33.009,38.021 C33.042,37.669 33.248,36.556 33.798,35.905 C33.862,36.345 33.948,36.796 33.948,37.747 C33.948,40.061 33.392,41.77 32.211,42.096 C32.365,42.363 32.69,42.604 33.027,42.604 C33.459,42.604 33.694,42.115 33.934,41.654 C34.059,41.994 34.404,42.828 34.75,42.828 C35.096,42.828 35.442,41.994 35.567,41.654 C35.806,42.115 36.042,42.604 36.474,42.604 C36.811,42.604 37.136,42.363 37.29,42.096 C36.109,41.77 35.552,40.061 35.552,37.747 C35.552,36.796 35.638,36.345 35.702,35.905 C36.253,36.556 36.46,37.669 36.491,38.021 C36.726,37.833 36.832,37.604 36.899,37.392 C37.345,37.939 37.861,38.693 37.977,38.95 C37.546,38.95 37.03,38.85 36.867,38.85 C36.435,38.85 36.333,39.093 36.333,39.308 C36.333,39.633 36.664,39.928 36.892,40.137 C37.093,39.7 37.934,39.767 37.934,39.767 C38.096,39.767 38.182,39.767 38.394,39.796 C38.374,39.91 38.373,40.068 38.374,40.188 C38.376,40.371 38.376,40.504 38.377,40.64 C38.377,41.162 38.357,41.44 37.973,41.793 C38.042,41.841 38.242,42 38.532,42 C39.123,42 39.208,41.572 39.208,40.641 C39.208,40.529 39.211,40.539 39.203,40.443 C39.498,40.765 39.847,41.226 39.847,41.62 C39.847,41.692 39.851,41.787 39.822,41.891 C40.288,41.891 40.642,41.408 40.642,41.086 C40.642,40.6 39.895,39.996 39.655,39.731 C39.694,39.728 39.722,39.726 39.737,39.726 C40.554,39.726 40.719,40 40.801,40.205 C41.019,40.027 41.207,39.708 41.207,39.307 C41.207,39.076 41.157,38.818 40.715,38.818 C40.293,38.818 39.649,38.88 39.205,38.96 C38.864,38.484 38.192,37.563 37.877,36.85 C38.004,36.872 38.185,36.887 38.464,36.887 C38.604,36.887 38.754,36.874 38.841,36.836 C37.487,35.664 36.359,34.146 36.359,32.427 C36.359,32.152 36.424,31.876 36.517,31.58 C36.55,31.573 36.586,31.568 36.62,31.562 L40.038,37.032 C41.061,38.65 41.864,38.622 43.073,38.622 C42.077,37.859 41.408,36.872 41.095,36.372 L37.887,31.239 C38.061,31.184 38.232,31.122 38.4,31.058 L41.237,35.601 C42.261,37.219 43.063,37.191 44.273,37.191 C43.266,36.417 42.612,35.448 42.294,34.941 L39.538,30.53 C39.694,30.444 39.847,30.353 39.995,30.259 L42.254,33.874 C43.278,35.493 44.079,35.464 45.289,35.464 C44.282,34.693 43.629,33.721 43.31,33.214 L40.994,29.506 C41.13,29.384 41.26,29.256 41.381,29.125 L43.024,31.753 C44.047,33.371 44.849,33.343 46.059,33.343 C45.053,32.571 44.397,31.597 44.079,31.091 L42.173,28.04 C42.275,27.85 42.362,27.656 42.434,27.457 z" fill="#000000"/>
    <path d="M56,42 L52.5,42 L52.5,22 L56,22 z" fill="#000000"/>
    <path d="M56,62 L52.5,62 L52.5,42 L56,42 z" fill="#FF0000"/>
    <path d="M56,82 L52.5,82 L52.5,62 L56,62 z" fill="#FFCC00"/>
  </g>
</svg>
