<svg id="Ebene_1" data-name="Ebene 1" xmlns="http://www.w3.org/2000/svg" viewBox="0 0 158.74 155.34"><defs><style>.cls-1{fill:#bfaa90;}.cls-2{fill:#cd3363;}.cls-3{fill:#576164;}.cls-4{fill:#bec5c9;}</style></defs><polygon class="cls-1" points="8.5 134.18 8.5 97.8 14.75 97.8 14.75 111.25 14.85 111.25 21.41 97.8 27.65 97.8 20.9 111.35 28.51 134.18 22.16 134.18 17.07 117.25 16.97 117.25 14.75 121.28 14.75 134.18 8.5 134.18"/><path class="cls-1" d="M31.44,97.8h6.25v27.46c0,2.66,1.11,4,3.32,4s3.33-1.32,3.33-4V97.8h6.25V125q0,4.74-2.55,7.21a9.69,9.69,0,0,1-7,2.47,9.7,9.7,0,0,1-7-2.47q-2.53-2.47-2.54-7.21Z"/><polygon class="cls-1" points="55.55 134.18 55.55 97.8 61.8 97.8 61.8 128.74 71.62 128.74 71.62 134.18 55.55 134.18"/><polygon class="cls-1" points="77.21 103.24 71.16 103.24 71.16 97.8 89.5 97.8 89.5 103.24 83.45 103.24 83.45 134.18 77.21 134.18 77.21 103.24"/><path class="cls-1" d="M93.38,97.8h6.25v27.46c0,2.66,1.11,4,3.33,4s3.32-1.32,3.32-4V97.8h6.25V125q0,4.74-2.54,7.21a9.7,9.7,0,0,1-7,2.47,9.69,9.69,0,0,1-7-2.47q-2.55-2.47-2.55-7.21Z"/><path class="cls-1" d="M123.88,134.18h-6.25V97.8h8.77q5.23,0,7.91,2.47c1.78,1.64,2.67,4.4,2.67,8.26a16.38,16.38,0,0,1-.38,3.78,10,10,0,0,1-1,2.65,6.3,6.3,0,0,1-3,2.74l5.3,16.48h-6.35l-4.44-15.07a11.15,11.15,0,0,1-1.48.13l-1.74,0Zm0-20.05h2.21a7.85,7.85,0,0,0,2.15-.26,2.86,2.86,0,0,0,1.43-.9,4.14,4.14,0,0,0,.81-1.74,12,12,0,0,0,.25-2.7c0-2.15-.35-3.62-1.06-4.41a4.6,4.6,0,0,0-3.58-1.18h-2.21Z"/><path class="cls-2" d="M47.39,62.25A6.69,6.69,0,0,0,47,60.34a3.5,3.5,0,0,0-.8-1.22,3,3,0,0,0-1-.65,3.06,3.06,0,0,0-1-.19,2.86,2.86,0,0,0-2.29.91A3.9,3.9,0,0,0,41,61.8a4.81,4.81,0,0,0,.92,2.84,17.42,17.42,0,0,0,2.32,2.58c.92.87,1.94,1.74,3,2.61a24.49,24.49,0,0,1,3,2.91,15.23,15.23,0,0,1,2.31,3.51,9.79,9.79,0,0,1,.92,4.35,10.12,10.12,0,0,1-.72,4,8.12,8.12,0,0,1-2,2.88,8.28,8.28,0,0,1-3.08,1.77,12.53,12.53,0,0,1-3.95.59A8.89,8.89,0,0,1,40,89a8.42,8.42,0,0,1-2.86-2.16,10.06,10.06,0,0,1-1.81-3.16,13.22,13.22,0,0,1-.75-3.83L40.43,79a7.8,7.8,0,0,0,1.19,4.07,3,3,0,0,0,2.49,1.35,3.86,3.86,0,0,0,2.58-.85,3,3,0,0,0,1-2.44A5.67,5.67,0,0,0,46.77,78a15.33,15.33,0,0,0-2.31-2.68c-.93-.86-1.94-1.73-3-2.59a24.59,24.59,0,0,1-3-2.83,14.25,14.25,0,0,1-2.31-3.48,10.35,10.35,0,0,1-.92-4.53,8.63,8.63,0,0,1,2.48-6.63q2.49-2.31,7.06-2.31a8.42,8.42,0,0,1,3.38.64,7.34,7.34,0,0,1,2.56,1.82,9.49,9.49,0,0,1,1.75,2.76,12.33,12.33,0,0,1,.86,3.48Z"/><polygon class="cls-2" points="62.34 58.77 56.37 58.77 56.37 53.4 74.47 53.4 74.47 58.77 68.5 58.77 68.5 89.3 62.34 89.3 62.34 58.77"/><path class="cls-2" d="M80.18,89.3h-6l6.62-35.9h7.65l6.61,35.9h-6l-1.1-8H81.27Zm2-13.33h5L84.7,60.56h-.1Z"/><polygon class="cls-2" points="127.34 58.77 121.38 58.77 121.38 53.4 139.47 53.4 139.47 58.77 133.51 58.77 133.51 89.3 127.34 89.3 127.34 58.77"/><path class="cls-2" d="M105,89.3H98.87V53.4h8.65c3.45,0,6,.82,7.81,2.44S118,60.18,118,64a16,16,0,0,1-.37,3.73,9.54,9.54,0,0,1-1,2.61,6.27,6.27,0,0,1-1.39,1.72,6.36,6.36,0,0,1-1.56,1l5.22,16.26h-6.27l-4.37-14.87a11,11,0,0,1-1.47.13l-1.71,0Zm0-19.79h2.18a7.66,7.66,0,0,0,2.12-.25,2.74,2.74,0,0,0,1.41-.89,4,4,0,0,0,.8-1.72A12.32,12.32,0,0,0,111.8,64q0-3.18-1-4.35a4.53,4.53,0,0,0-3.53-1.17H105Z"/><polygon class="cls-3" points="72.04 44.91 72.04 8.53 77.83 8.53 85.44 29.34 85.54 29.34 85.54 8.53 91.19 8.53 91.19 44.91 85.75 44.91 77.78 22.18 77.68 22.18 77.68 44.91 72.04 44.91"/><polygon class="cls-3" points="96.31 44.91 96.31 8.53 113.04 8.53 113.04 13.97 102.56 13.97 102.56 23.34 110.62 23.34 110.62 28.79 102.56 28.79 102.56 39.47 113.75 39.47 113.75 44.91 96.31 44.91"/><path class="cls-3" d="M118,8.53h6.25V36c0,2.66,1.11,4,3.32,4s3.33-1.32,3.33-4V8.53h6.25V35.74q0,4.74-2.55,7.21a11.24,11.24,0,0,1-14.06,0Q118,40.47,118,35.74Z"/><polygon class="cls-4" points="12.63 89.28 8.5 89.29 8.5 8.5 63.5 8.5 63.5 12.54 12.63 12.54 12.63 89.28"/><polygon class="cls-4" points="150.24 146.84 8.5 146.84 8.5 142.58 145.98 142.58 145.98 8.5 150.24 8.5 150.24 146.84"/></svg>