<?xml version="1.0" encoding="UTF-8" standalone="no"?>
<svg
   xmlns:dc="http://purl.org/dc/elements/1.1/"
   xmlns:cc="http://creativecommons.org/ns#"
   xmlns:rdf="http://www.w3.org/1999/02/22-rdf-syntax-ns#"
   xmlns:svg="http://www.w3.org/2000/svg"
   xmlns="http://www.w3.org/2000/svg"
   xmlns:sodipodi="http://sodipodi.sourceforge.net/DTD/sodipodi-0.dtd"
   xmlns:inkscape="http://www.inkscape.org/namespaces/inkscape"
   version="1.1"
   id="svg2"
   xml:space="preserve"
   width="461.33334"
   height="132"
   viewBox="0 0 461.33334 132"
   sodipodi:docname="fs.eps"><metadata
     id="metadata8"><rdf:RDF><cc:Work
         rdf:about=""><dc:format>image/svg+xml</dc:format><dc:type
           rdf:resource="http://purl.org/dc/dcmitype/StillImage" /></cc:Work></rdf:RDF></metadata><defs
     id="defs6"><clipPath
       clipPathUnits="userSpaceOnUse"
       id="clipPath22"><path
         d="M 14.1719,975.828 H 3444.09 V 12.0508 H 14.1719 Z"
         id="path20" /></clipPath></defs><sodipodi:namedview
     pagecolor="#ffffff"
     bordercolor="#666666"
     borderopacity="1"
     objecttolerance="10"
     gridtolerance="10"
     guidetolerance="10"
     inkscape:pageopacity="0"
     inkscape:pageshadow="2"
     inkscape:window-width="640"
     inkscape:window-height="480"
     id="namedview4" /><g
     id="g10"
     inkscape:groupmode="layer"
     inkscape:label="ink_ext_XXXXXX"
     transform="matrix(1.3333333,0,0,-1.3333333,0,132)"><g
       id="g12"
       transform="scale(0.1)"><path
         d="M 14.1719,975.828 H 3444.09 V 12.0508 H 14.1719 V 975.828"
         style="fill:#ffffff;fill-opacity:1;fill-rule:nonzero;stroke:none"
         id="path14" /><g
         id="g16"><g
           id="g18"
           clip-path="url(#clipPath22)"><path
             d="M 14.1758,975.828 H 3444.1 V 493.941 H 14.1758 v 481.887"
             style="fill:#231f20;fill-opacity:1;fill-rule:nonzero;stroke:none"
             id="path24" /><path
             d="M 910.094,790.543 V 842 H 775.871 V 608.273 h 60.758 v 91.754 h 66.644 v 51.461 h -66.644 v 39.055 h 73.465"
             style="fill:#ffffff;fill-opacity:1;fill-rule:nonzero;stroke:none"
             id="path26" /><path
             d="m 1256.66,849.75 c -67.27,0 -129.26,-49.598 -129.26,-120.273 0,-75.633 54.24,-128.954 129.26,-128.954 75.02,0 129.26,53.321 129.26,128.954 0,70.675 -61.99,120.273 -129.26,120.273 z m 0,-58.895 c 36.27,0 66.03,-29.449 66.03,-61.687 0,-40.297 -29.76,-69.746 -66.03,-69.746 -36.27,0 -66.03,29.449 -66.03,69.746 0,32.238 29.76,61.687 66.03,61.687"
             style="fill:#ffffff;fill-opacity:1;fill-rule:evenodd;stroke:none"
             id="path28" /><path
             d="m 1612.44,608.273 h 60.76 v 143.215 h 0.62 L 1785.1,608.273 h 60.76 V 842 H 1785.1 V 699.102 h -0.62 L 1673.2,842 h -60.76 V 608.273"
             style="fill:#ffffff;fill-opacity:1;fill-rule:nonzero;stroke:none"
             id="path30" /><path
             d="m 2090.08,608.273 h 86.18 c 64.79,0 118.72,51.149 118.72,116.864 0,65.718 -53.62,116.863 -118.72,116.863 h -86.18 z m 60.76,182.27 h 14.26 c 39.06,0 66.65,-23.559 66.65,-65.406 0,-45.567 -31,-65.407 -67.27,-65.407 h -13.64 v 130.813"
             style="fill:#ffffff;fill-opacity:1;fill-rule:evenodd;stroke:none"
             id="path32" /><path
             d="m 2674.08,828.98 c -20.77,11.782 -49.6,19.223 -73.15,19.223 -46.81,0 -80.6,-31 -80.6,-78.426 0,-45.257 25.11,-55.179 63.24,-66.027 13.02,-3.723 36.88,-9.609 36.88,-26.66 0,-16.43 -15.18,-23.559 -29.44,-23.559 -20.77,0 -38.75,10.852 -53.94,24.18 l -26.04,-48.977 c 23.87,-16.738 52.7,-26.66 82.15,-26.66 23.55,0 48.04,6.512 66.33,22.008 18.6,15.809 24.18,39.68 24.18,62.93 0,37.816 -25.11,54.246 -57.65,63.855 l -15.5,4.649 c -10.54,3.41 -26.97,8.679 -26.97,22.32 0,13.019 14.88,19.527 26.04,19.527 14.87,0 29.13,-6.199 40.29,-15.5 l 24.18,47.117"
             style="fill:#ffffff;fill-opacity:1;fill-rule:nonzero;stroke:none"
             id="path34" /></g></g><path
         d="M 14.1719,975.828 H 3444.09 V 12.0508 H 14.1719 Z"
         style="fill:none;stroke:#231f20;stroke-width:22.677;stroke-linecap:butt;stroke-linejoin:miter;stroke-miterlimit:3.86369;stroke-dasharray:none;stroke-opacity:1"
         id="path36" /><path
         d="m 430.926,373.457 c -15.871,17.594 -47.957,28.977 -71.071,28.977 -43.816,0 -75.902,-34.844 -75.902,-77.969 0,-40.363 24.496,-57.27 57.961,-71.07 20.356,-7.934 45.195,-15.524 45.195,-42.434 0,-20.012 -12.765,-37.606 -33.464,-37.606 -21.735,0 -40.02,17.938 -46.918,37.95 l -32.778,-32.086 c 17.942,-30.016 44.16,-50.715 80.039,-50.715 53.133,0 85.563,36.914 85.563,89.012 0,87.285 -103.156,69 -103.156,112.816 0,16.902 15.523,29.324 31.742,29.324 16.902,0 29.324,-8.281 38.984,-21.39 l 23.805,35.191"
         style="fill:#231f20;fill-opacity:1;fill-rule:nonzero;stroke:none"
         id="path38" /><path
         d="m 659.18,128.504 c 75.902,0 128.687,62.789 128.687,137.312 0,72.793 -52.785,136.618 -128.687,136.618 -75.899,0 -128.684,-63.825 -128.684,-136.618 0,-74.523 52.785,-137.312 128.684,-137.312 z m 0,223.906 c 44.508,0 76.246,-42.433 76.246,-84.527 0,-39.328 -33.121,-89.352 -76.246,-89.352 -43.125,0 -76.242,50.024 -76.242,89.352 0,42.094 31.738,84.527 76.242,84.527"
         style="fill:#231f20;fill-opacity:1;fill-rule:evenodd;stroke:none"
         id="path40" /><path
         d="m 939.59,179.566 114.2,215.969 H 876.457 v -44.16 h 96.945 L 858.859,135.402 h 188.721 v 44.164 H 939.59"
         style="fill:#231f20;fill-opacity:1;fill-rule:nonzero;stroke:none"
         id="path42" /><path
         d="m 1205.16,395.535 h -50.72 V 135.402 h 50.72 v 260.133"
         style="fill:#231f20;fill-opacity:1;fill-rule:nonzero;stroke:none"
         id="path44" /><path
         d="m 1435.2,128.504 c 75.91,0 128.69,62.789 128.69,137.312 0,72.793 -52.78,136.618 -128.69,136.618 -75.9,0 -128.68,-63.825 -128.68,-136.618 0,-74.523 52.78,-137.312 128.68,-137.312 z m 0,223.906 c 44.51,0 76.25,-42.433 76.25,-84.527 0,-39.328 -33.12,-89.352 -76.25,-89.352 -43.12,0 -76.24,50.024 -76.24,89.352 0,42.094 31.74,84.527 76.24,84.527"
         style="fill:#231f20;fill-opacity:1;fill-rule:evenodd;stroke:none"
         id="path46" /><path
         d="m 1713.54,285.824 h -0.68 v 109.711 h -50.72 V 135.402 h 50.72 v 116.957 h 0.68 l 83.15,-116.957 h 65.2 l -104.19,140.075 98.68,120.058 h -62.45 l -80.39,-109.711"
         style="fill:#231f20;fill-opacity:1;fill-rule:nonzero;stroke:none"
         id="path48" /><path
         d="m 1951.48,239.941 c 0,-63.48 26.91,-111.437 96.61,-111.437 69.68,0 96.59,47.957 96.59,111.437 v 155.594 h -50.71 v -145.59 c 0,-32.086 -2.76,-77.281 -45.88,-77.281 -43.13,0 -45.89,45.195 -45.89,77.281 v 145.59 h -50.72 V 239.941"
         style="fill:#231f20;fill-opacity:1;fill-rule:nonzero;stroke:none"
         id="path50" /><path
         d="M 2315.02,395.535 H 2264.3 V 135.402 h 122.47 v 44.164 h -71.75 v 215.969"
         style="fill:#231f20;fill-opacity:1;fill-rule:nonzero;stroke:none"
         id="path52" /><path
         d="m 2557.41,351.375 h 52.44 v 44.16 h -155.59 v -44.16 h 52.44 V 135.402 h 50.71 v 215.973"
         style="fill:#231f20;fill-opacity:1;fill-rule:nonzero;stroke:none"
         id="path54" /><path
         d="m 2707.39,239.941 c 0,-63.48 26.91,-111.437 96.6,-111.437 69.69,0 96.6,47.957 96.6,111.437 v 155.594 h -50.71 v -145.59 c 0,-32.086 -2.76,-77.281 -45.89,-77.281 -43.12,0 -45.88,45.195 -45.88,77.281 v 145.59 h -50.72 V 239.941"
         style="fill:#231f20;fill-opacity:1;fill-rule:nonzero;stroke:none"
         id="path56" /><path
         d="m 3122.67,245.113 c 34.85,5.867 53.13,38.989 53.13,72.106 0,55.547 -35.53,78.316 -86.94,78.316 h -68.65 V 135.402 h 50.71 v 104.883 h 0.69 l 63.14,-104.883 h 61.41 z m -51.75,109.024 h 6.9 c 26.91,0 47.27,-6.211 47.27,-38.297 0,-31.738 -19.67,-40.02 -47.61,-40.02 h -6.56 v 78.317"
         style="fill:#231f20;fill-opacity:1;fill-rule:evenodd;stroke:none"
         id="path58" /></g></g></svg>
