<svg xmlns="http://www.w3.org/2000/svg" height="161" width="317">

 <path fill="#32487a" d="m59.8,91.9c-0.531,0.0106-0.983,0.227-1.4,0.642-0.426,0.426-1.64,1.21-2.69,1.73-1.82,0.901-2.06,0.939-4.67,0.812-2.18-0.106-3.39-0.367-5.91-1.27-4.39-1.57-5.16-1.64-6.16-0.642-0.916,0.916-0.971,1.28-0.34,2.18,0.272,0.388,0.327,0.694,0.142,0.756-0.573,0.191,0.367,1.58,1.87,2.77,1.98,1.56,4.48,2.38,10.1,3.3,0.686,0.113,2.74-0.199,4.53-0.69,0.665-0.182,1.55-0.414,1.96-0.51,0.416-0.0962,1.1-0.442,1.51-0.765,0.416-0.323,1.19-0.763,1.71-0.982,0.524-0.219,1.05-0.716,1.17-1.11,0.123-0.389,0.475-0.931,0.784-1.2s0.567-0.647,0.567-0.841,0.177-0.416,0.397-0.501c0.816-0.313,0.202-1.86-1.07-2.7-1.01-0.666-1.81-0.996-2.49-0.982l-0.000019-0.000008zm-32.4,0.9c-0.214,0-0.786,0.335-1.28,0.746-1.13,0.948-1.38,2.56-0.765,4.91,0.911,3.49,2.52,5.45,6.71,8.19,4.3,2.82,11,4.55,17.2,4.47,1.35-0.0177,2.41-0.12,2.34-0.227-0.0652-0.107,1.14-0.283,2.67-0.397,1.54-0.114,3.34-0.348,4-0.519,0.665-0.171,1.55-0.365,1.96-0.434,0.416-0.0699,0.96-0.211,1.21-0.312,0.249-0.1,0.739-0.226,1.1-0.274,0.933-0.125,2.39-0.922,3.26-1.79,0.415-0.415,0.879-0.756,1.03-0.756s0.781-0.476,1.4-1.06c0.617-0.582,1.32-1.06,1.56-1.06,0.242,0,0.57-0.333,0.727-0.746s0.73-0.952,1.28-1.19c0.545-0.238,0.797-0.44,0.557-0.453-0.35-0.0199-0.344-0.103,0.0566-0.406,0.728-0.552,0.902-1.95,0.274-2.19-0.432-0.168-0.376-0.298,0.349-0.926,1.25-1.08,1.28-1.85,0.113-2.56-1.6-0.975-2.31-0.776-4.77,1.31-2.82,2.4-4.7,3.68-6.71,4.59-1.76,0.8-7.19,1.94-11.3,2.38-1.26,0.134-6.37-0.581-8.69-1.22-4.82-1.32-9-4.06-11.3-7.4-1.04-1.51-2.32-2.67-2.96-2.67l0.00001,0.000015zm-14.7,0.325c-0.253,0.0122-0.531,0.0632-0.812,0.125-2.31,0.507-3.02,4.5-1.38,7.72,2.18,4.27,8.1,11,12.2,13.9,3,2.12,8.41,4.63,10.6,4.94,0.416,0.0576,1.16,0.269,1.66,0.469,0.499,0.2,1.31,0.417,1.81,0.469,0.499,0.0519,1.31,0.171,1.81,0.281,1.3,0.288,2.19,0.439,4.16,0.656,0.956,0.106,1.72,0.273,1.72,0.375,0.000599,0.178,6.46,0.225,8.31,0.0625,0.796-0.07,0.843-0.116,0.312-0.344-0.493-0.212-0.51-0.264-0.0938-0.281,0.281-0.0117,0.585,0.115,0.688,0.281,0.327,0.53,1.05,0.331,1-0.281-0.0392-0.521-0.226-0.565-1.44-0.406-0.765,0.0999-1.26,0.0515-1.12-0.0937,0.347-0.372,2.94-0.481,2.94-0.125,0,0.164,0.667,0.256,1.5,0.219,0.831-0.037,1.53,0.0312,1.53,0.156s-0.46,0.259-1,0.281c-0.563,0.0237-0.722,0.0873-0.375,0.156,0.332,0.0661,2.24-0.237,4.22-0.656,3.47-0.736,4.51-1.06,3.34-1.06-0.773,0-0.431-0.258,0.781-0.594,0.957-0.265,1-0.277,0.438,0.156-0.576,0.442-0.583,0.471,0.281,0.281,1.85-0.408,4.11-1.44,3.72-1.72-0.244-0.17-0.141-0.212,0.281-0.0937,0.794,0.223,6.26-2.42,8.09-3.91,1.21-0.978,2.23-1.53,2.66-1.44,0.125,0.0264,0.219-0.0838,0.219-0.25s0.198-0.281,0.438-0.281,0.523-0.148,0.625-0.312c0.11-0.177-0.0521-0.206-0.375-0.0937-0.897,0.312,1.48-1.82,2.75-2.47,0.643-0.328,1.5-1.02,1.91-1.56,0.411-0.539,1.03-1.08,1.38-1.19,1.23-0.39,3.25-3.2,3.25-4.53,0.000854-0.507,0.125-1.06,0.281-1.22,0.156-0.158,0.369-0.95,0.469-1.78,0.18-1.5,0.164-1.52-1.12-2.47-2.59-1.91-4.41-1.33-6.03,1.88-1.28,2.52-7.76,8.8-10.2,9.91-0.416,0.187-1.19,0.639-1.72,1.03-1.04,0.766-7.19,3.4-7.97,3.41-0.258,0.00087-0.592,0.108-0.75,0.25-1.54,1.38-13.1,2.3-19.5,1.53-4.87-0.581-12.4-3.27-15.9-5.66-2.81-1.91-7.45-6.76-9.69-10.2-2.91-4.4-4.13-5.68-5.91-5.59l0.00005-0.000198zm56,24.9c0.105,0.004,0.2,0.0435,0.25,0.0937,0.1,0.1-0.0876,0.169-0.406,0.156-0.352-0.0145-0.397-0.091-0.156-0.188,0.109-0.0436,0.207-0.0667,0.312-0.0625v0.00005zm-1.25,0.438c0.196-0.021,0.279,0.0269,0.219,0.125-0.0808,0.131-0.415,0.319-0.75,0.406-0.335,0.0877-0.55,0.0367-0.469-0.0937,0.0808-0.131,0.446-0.287,0.781-0.375,0.0838-0.0219,0.153-0.0555,0.219-0.0625v-0.00005zm-4.59,1.38c0.0636-0.00042,0.133,0.0131,0.188,0.0312,0.226,0.0756,0.065,0.206-0.344,0.312-0.503,0.131-0.599,0.0992-0.375-0.125,0.132-0.132,0.34-0.218,0.531-0.219v0.00005zm-23.2,0.312c0.105,0.004,0.2,0.0435,0.25,0.0937,0.1,0.1-0.0876,0.169-0.406,0.156-0.352-0.0144-0.429-0.091-0.188-0.188,0.109-0.0435,0.239-0.0668,0.344-0.0625v0.00005zm1.19,0.312c0.105,0.004,0.2,0.0123,0.25,0.0625,0.1,0.1-0.0564,0.169-0.375,0.156-0.352-0.0144-0.429-0.091-0.188-0.188,0.109-0.0436,0.208-0.0356,0.312-0.0312v-0.00005zm1.84,0.281c0.137,0,0.302,0.0205,0.406,0.0625,0.208,0.0838,0.0093,0.156-0.406,0.156-0.416,0-0.583-0.0724-0.375-0.156,0.104-0.0419,0.238-0.0625,0.375-0.0625zm4.53,0c0.247,0,0.5,0.0265,0.688,0.0625,0.374,0.072,0.0606,0.125-0.688,0.125-0.748,0-1.03-0.053-0.656-0.125,0.187-0.036,0.41-0.0625,0.656-0.0625zm0,0.625c0.105,0.005,0.169,0.0123,0.219,0.0625,0.1,0.1-0.0564,0.169-0.375,0.156-0.352-0.0144-0.429-0.091-0.188-0.188,0.109-0.0436,0.239-0.0356,0.344-0.0312v-0.00005zm2.41,0c0.274,0.00059,0.533-0.005,0.719,0.0312,0.372,0.0718-0.0126,0.127-0.844,0.125-0.831-0.003-1.15-0.0555-0.688-0.125,0.23-0.0348,0.539-0.0319,0.812-0.0312zm19.9-46c-4.82-0.006-6.54,0.0798-6.75,0.293-0.294,0.293-0.205,0.71,0.434,1.97,0.445,0.879,0.812,1.73,0.812,1.91,0,0.174,0.19,0.584,0.425,0.907,0.38,0.521,0.946,0.612,5.06,0.774,4.54,0.18,11.3,0.103,20.3-0.217,4.16-0.148,9.05-0.745,9.46-1.16,0.223-0.223-0.865-1.05-1.4-1.07-0.224-0.0053-0.795-0.279-1.27-0.614-0.742-0.528-1.14-0.588-2.99-0.416-2.89,0.268-2.84-0.33,0.0566-0.746l2.19-0.321-2.04,0.151c-1.47,0.103-2.29,0.0117-2.94-0.321-0.491-0.254-1.36-0.463-1.94-0.463-0.576,0-1.1-0.118-1.15-0.264-0.0554-0.146-5.63-0.316-12.4-0.378-2.36-0.0215-4.31-0.0358-5.92-0.0378l0.000031-0.000015zm-46.5-0.4c-3.93,0.0135-7.27,0.0714-8.27,0.179-1.08,0.116-2.85,0.237-3.93,0.274-1.85,0.0628-3.95,0.514-2.64,0.567,0.814,0.0327,0.625,0.509-0.359,0.916-0.487,0.202-0.956,0.57-1.05,0.812-0.0929,0.242-0.607,0.582-1.13,0.765-0.849,0.296-0.901,0.381-0.453,0.708,0.278,0.203,1.49,0.459,2.69,0.576s2.69,0.285,3.3,0.368c4.52,0.62,7.28,0.654,23,0.274,5.61-0.136,6.55-0.409,6.55-1.87,0-0.427,0.272-1.12,0.604-1.54,1.01-1.28,0.797-1.49-1.74-1.76-1.82-0.193-10-0.296-16.6-0.274v-0.000008zm29.5-3.8c-0.166,0-0.302,0.286-0.302,0.633,0,0.562-0.132,0.612-1.2,0.463-0.957-0.134-1.37-0.03-2.04,0.519-0.463,0.378-1.42,0.854-2.13,1.06-2.43,0.702-5.62,4.68-5.02,6.25,0.0863,0.225,0.588,0.45,1.11,0.501,2.06,0.2,19.7,0.0821,19.8-0.132,0.0438-0.125-0.0759-0.873-0.274-1.66-0.466-1.86-3.12-4.6-4.98-5.15-0.687-0.202-1.42-0.573-1.62-0.822-0.228-0.275-0.895-0.453-1.7-0.453-1.12,0-1.32-0.0921-1.32-0.604,0-0.332-0.136-0.604-0.302-0.604h-0.00005zm33.7,20.3,0,0.208,1.62,0,0-0.208c-0.173,0-0.334-0.0563-0.481-0.169s-0.221-0.282-0.221-0.507v-7.42l2.9,8.31h0.377l2.96-8.36v8.15h-0.702v0.208h3.5v-0.208h-0.702v-8.36h0.702v-0.208h-2.91l-2.12,5.89-2.13-5.89h-2.79v0.208h0.702v7.68c0,0.225-0.0716,0.394-0.215,0.507s-0.306,0.169-0.488,0.169l-0.000015,0.000008zm-9.7-8.6-2.6,7.9c-0.0606,0.182-0.171,0.34-0.331,0.474s-0.379,0.202-0.657,0.202v0.208h1.96v-0.208c-0.156,0-0.282-0.0152-0.377-0.0456-0.0954-0.0304-0.169-0.0694-0.221-0.117s-0.0866-0.0996-0.104-0.156c-0.0173-0.0563-0.026-0.106-0.026-0.15,0-0.0521,0.0022-0.0976,0.0065-0.136,0.0044-0.0389,0.0195-0.0931,0.0454-0.163l0.546-1.74h2.61l0.832,2.51h-0.702v0.208h3.5v-0.208h-0.702l-2.86-8.65h-0.897zm-0.481,2.17,1.24,3.76-2.46,0,1.22-3.76zm-12-2.09-3.78,0,0,0.208,0.702,0,0,8.36-0.702,0,0,0.208,3.78,0c0.607,0,1.14-0.126,1.59-0.377,0.451-0.251,0.826-0.583,1.12-0.995,0.299-0.412,0.524-0.882,0.676-1.41,0.152-0.529,0.228-1.07,0.228-1.61-0.000008-0.546-0.0758-1.08-0.228-1.61-0.152-0.524-0.377-0.992-0.676-1.4-0.299-0.412-0.674-0.743-1.12-0.994-0.451-0.251-0.979-0.377-1.59-0.377zm-0.988,8.57,0-8.36,0.663,0c0.234,0.000008,0.453,0.0542,0.657,0.162s0.379,0.305,0.526,0.592c0.147,0.286,0.264,0.68,0.351,1.18,0.0866,0.503,0.13,1.14,0.13,1.92v0.624c-0.000015,0.806-0.0433,1.46-0.13,1.96-0.0866,0.503-0.204,0.897-0.351,1.18-0.147,0.286-0.319,0.479-0.514,0.579-0.195,0.0997-0.405,0.15-0.631,0.15l-0.702,0.000008zm-9.04-8.66-0.338,0.507c-0.182-0.121-0.425-0.247-0.728-0.377s-0.689-0.195-1.16-0.195c-0.477,0.000008-0.895,0.0845-1.25,0.254-0.36,0.169-0.661,0.388-0.904,0.657s-0.427,0.576-0.552,0.923c-0.126,0.347-0.188,0.693-0.188,1.04,0,0.615,0.147,1.13,0.442,1.55,0.295,0.416,0.776,0.719,1.44,0.91,0.156,0.0434,0.325,0.0868,0.507,0.13,0.182,0.0434,0.362,0.0846,0.54,0.124,0.178,0.039,0.34,0.0758,0.487,0.11,0.147,0.0346,0.26,0.0649,0.338,0.0908,0.407,0.113,0.682,0.282,0.825,0.507s0.214,0.52,0.214,0.884c0,0.174-0.0368,0.358-0.11,0.553-0.0737,0.195-0.186,0.375-0.338,0.539-0.152,0.165-0.347,0.303-0.585,0.416s-0.518,0.169-0.838,0.169c-0.433,0-0.804-0.078-1.11-0.234-0.308-0.156-0.57-0.36-0.786-0.611-0.217-0.251-0.394-0.533-0.533-0.845s-0.251-0.624-0.338-0.936c-0.0346-0.121-0.0737-0.182-0.117-0.182-0.0259,0.000015-0.0454,0.013-0.0583,0.0389-0.013,0.0259-0.0194,0.0823-0.0194,0.169v2.55c0,0.0521,0.0065,0.0998,0.0194,0.143,0.013,0.0434,0.0411,0.0651,0.0845,0.0651,0.0606,0,0.13-0.0607,0.208-0.182l0.403-0.611c0.0868,0.0865,0.193,0.18,0.319,0.279,0.126,0.0997,0.277,0.193,0.455,0.279,0.178,0.0866,0.386,0.16,0.624,0.221,0.238,0.0607,0.522,0.091,0.852,0.091,0.511,0,0.958-0.0845,1.34-0.254,0.381-0.169,0.698-0.392,0.949-0.669s0.44-0.594,0.566-0.949,0.189-0.719,0.189-1.09c0-0.797-0.197-1.44-0.592-1.93-0.394-0.49-0.977-0.808-1.75-0.955-0.191-0.0346-0.425-0.0845-0.702-0.15-0.277-0.0651-0.52-0.132-0.728-0.202-0.269-0.0955-0.462-0.249-0.579-0.462-0.117-0.212-0.176-0.479-0.176-0.8,0-0.173,0.0304-0.344,0.091-0.513,0.0607-0.169,0.152-0.319,0.273-0.449s0.273-0.234,0.455-0.312,0.394-0.117,0.637-0.117c0.199,0.000015,0.405,0.0282,0.618,0.0845,0.212,0.0563,0.418,0.158,0.618,0.305,0.199,0.147,0.386,0.355,0.559,0.624s0.316,0.611,0.429,1.03c0.0259,0.121,0.0649,0.182,0.117,0.182,0.0431,0.000015,0.0668-0.0195,0.0712-0.0585s0.0065-0.0846,0.0065-0.137v-2.18c-0.000008-0.0868-0.0217-0.13-0.0651-0.13-0.0431,0.000008-0.0864,0.039-0.13,0.117l0.00005,0.000015zm-13.2,8.6v-8.36h0.533c0.442,0.000008,0.821,0.212,1.14,0.637,0.316,0.425,0.54,1,0.67,1.73h0.26l-0.195-2.3c-0.0087-0.078-0.0369-0.143-0.0845-0.195s-0.141-0.078-0.28-0.078h-6.23c-0.113,0-0.191,0.026-0.234,0.078-0.0432,0.052-0.0692,0.117-0.078,0.195l-0.195,2.3h0.26c0.13-0.728,0.353-1.3,0.669-1.73,0.316-0.425,0.696-0.637,1.14-0.637h0.533v8.36h-0.702v0.208h3.5v-0.208h-0.702zm-18.2-4.2c0,0.572,0.0888,1.13,0.266,1.67,0.178,0.542,0.442,1.03,0.793,1.46,0.351,0.429,0.787,0.773,1.31,1.03,0.52,0.26,1.12,0.39,1.81,0.39,0.685,0,1.29-0.13,1.81-0.39s0.955-0.604,1.31-1.03c0.351-0.429,0.615-0.914,0.793-1.46,0.178-0.542,0.267-1.1,0.267-1.67-0.00001-0.563-0.0889-1.12-0.267-1.66-0.178-0.546-0.442-1.03-0.793-1.46-0.351-0.425-0.786-0.767-1.31-1.03-0.52-0.26-1.12-0.39-1.81-0.39-0.684,0.000008-1.29,0.13-1.81,0.39s-0.956,0.602-1.31,1.03c-0.4,0.5-0.6,1-0.8,1.6-0.2,0.5-0.3,1.1-0.3,1.6zm4.17-4.3c0.364,0.000008,0.657,0.0694,0.878,0.208s0.39,0.355,0.507,0.65,0.195,0.672,0.234,1.13c0.0389,0.459,0.0583,1.01,0.0583,1.66v1.3c0,0.719-0.0194,1.32-0.0583,1.79-0.0389,0.472-0.117,0.847-0.234,1.12-0.117,0.277-0.286,0.472-0.507,0.585s-0.514,0.169-0.878,0.169-0.656-0.0563-0.877-0.169-0.39-0.308-0.507-0.585-0.195-0.652-0.234-1.12c-0.039-0.472-0.0585-1.07-0.0585-1.79v-1.3c-0.000011-0.65,0.0195-1.2,0.0585-1.66,0.039-0.459,0.117-0.836,0.234-1.13,0.117-0.295,0.286-0.511,0.507-0.65s0.513-0.208,0.877-0.208zm-12.2-0.1h-4.07v0.208h0.702v8.36h-0.702v0.208h3.5v-0.208h-0.702v-3.84h1.27c0.373,0.000008,0.724-0.0411,1.05-0.123,0.329-0.0822,0.617-0.214,0.864-0.397,0.247-0.182,0.444-0.42,0.592-0.715,0.147-0.295,0.221-0.654,0.221-1.08-0.00001-0.424-0.0737-0.788-0.221-1.09-0.147-0.303-0.344-0.553-0.592-0.748-0.247-0.195-0.535-0.34-0.864-0.435-0.329-0.0952-0.68-0.143-1.05-0.143v0.000008zm-0.806,4.52-0.468,0,0-4.32,0.351,0c0.303,0.000008,0.555,0.0499,0.754,0.15,0.199,0.0997,0.36,0.243,0.481,0.429s0.208,0.418,0.26,0.695,0.078,0.589,0.078,0.936c0,0.676-0.104,1.2-0.312,1.56-0.208,0.364-0.589,0.546-1.14,0.546zm125,18.9,1.6,0c1.88,0,2.62,0.291,2.62,2.06v2.42c0,1.48-0.576,2.22-2.62,2.22h-1.6v-6.71zm2.09,14.4,0-0.676-2.09,0,0-6.35,1.39,0c2.72,0,7.05-0.604,7.05-4.22,0-1.77-1.56-3.84-5.47-3.84h-8.48v0.676h1.64v13.7h-1.69v0.676h7.64zm14.7-1.95c0,1.29-0.741,1.65-1.93,1.65s-1.93-0.358-1.93-1.65v-4.75c0-1.36,0.423-1.74,1.93-1.74,1.66,0,1.93,0.379,1.93,1.74v4.75zm-1.93-7.14c-2.72,0-5.45,1.83-5.45,4.8,0,2.49,2.2,4.64,5.45,4.64,2.93,0,5.45-1.72,5.45-4.64,0-2.96-2.72-4.8-5.45-4.8zm8.12,0.352-1.37,0,0,0.648,1.37,0,0,6.54c0,1.1,0,1.9,2.11,1.9,1.8,0,3.03-0.62,3.41-2.36l-0.654-0.137c-0.138,0.736-0.291,1.44-1.17,1.44-0.654,0-0.539-0.708-0.539-1.17v-6.21h1.71v-0.648h-1.71v-2.9c-0.599,0.0662-1.21,0.226-1.81,0.226h-1.35v2.68zm7.63,8.26c0.746,0.505,1.69,0.824,2.59,0.824,2.23,0,3.25-1.73,3.25-3.53,0-2.32-1.7-2.92-4.14-3.1-0.989-0.0663-1.84-0.451-1.84-0.94,0-0.966,1.37-1.21,2.07-1.21,1.48,0,2.06,0.631,2.54,2h0.72v-2.65h-0.545c-0.154,0.226-0.466,0.55-0.642,0.5-0.774-0.225-1.19-0.5-2.03-0.5-1.77,0-3.16,1.11-3.16,3.04,0,2.54,2.13,2.92,4.07,3.12,0.869,0.0938,1.91,0.005,1.91,1.13,0,0.994-1.32,1.5-2.1,1.5-1.63,0-2.97-1.3-3.26-2.87h-0.555v3.16h0.532l0.605-0.472zm14.2,0.472,4.44,0,0-0.649-1.28,0,0-14.5c-1.05,0.065-2.11,0.065-3.16,0.065h-1.73v0.649h1.73v6.99h-0.0438c-0.451-0.956-1.46-1.61-2.53-1.61-1.59,0-4.45,1.45-4.45,4.95,0,2.22,1.88,4.48,4.14,4.48,1.28,0,2.18-0.643,2.89-1.65v1.3zm0-3.02c0,1.36-1.08,2.72-2.48,2.72-0.709,0-1.04-0.534-1.04-1.2v-5.87c0-0.736,0.599-1.07,1.26-1.07,1.22,0,2.26,1.29,2.26,2.72v2.7zm11.8,0.688c0,0.592-0.51,1.27-1.53,1.27-0.885,0-1.29-1.01-1.29-1.77,0-1.59,1.61-1.75,2.81-1.75v2.24zm0-2.89c-1.96,0-5.62,0.676-5.62,3.4,0,1.45,1.39,2.17,2.58,2.17s2.31-0.638,3.09-1.57c0.225,0.725,1.04,1.57,2.02,1.57,1.08,0,1.74-0.368,2.35-1.41l-0.406-0.324c-0.0875,0.165-0.406,0.324-0.56,0.324-0.632,0-0.632-0.576-0.632-1.06v-5.46c0-0.66-1.26-1.51-4.2-1.51-1.42,0-3.88,0.594-3.88,2.33,0,0.814,0.636,1.32,1.41,1.32,0.944,0,1.41-0.599,1.41-1.5,0-0.171-0.0887-0.363-0.176-0.534-0.0875-0.17-0.176-0.345-0.176-0.45,0-0.39,0.961-0.516,1.21-0.516,1.69,0,1.6,0.665,1.6,1.78v1.44zm9.49-3.87-3.16,0-1.44,0,0,0.649,1.44,0,0,7.79-1.24,0,0,0.649,5.44,0,0-0.649-1.04,0,0-4.52c0-2,1.3-2.97,1.93-2.97,0.741,0,0.879,0.429,0.879,1.91v5.58h-1.04v0.649h5.37v-0.649h-1.16v-4.61c0-1.17,0.989-2.88,2.29-2.88,0.808,0,0.874,0.632,0.874,1.24v6.26h-1.16v0.649h5.79v-0.649h-1.46v-6.59c0-1.38-1.47-1.9-2.65-1.9-1.57,0-2.9,0.935-3.75,2.19-0.236-1.49-1.37-2.19-2.67-2.19-1.43,0-2.54,1.02-3.23,2.28v-2.22zm-59.4-17.9,0-4.94-0.401,0c-0.692,2.15-1.63,4.27-4.14,4.27h-2.49v-13.7h2.01v-0.676h-7.4v0.676h1.53v13.7h-1.53v0.676h12.4zm7.42-2.33c0,0.592-0.51,1.27-1.53,1.27-0.885,0-1.29-1.01-1.29-1.77,0-1.59,1.61-1.75,2.81-1.75v2.24zm0-2.89c-1.96,0-5.62,0.676-5.62,3.4,0,1.45,1.39,2.17,2.58,2.17s2.31-0.638,3.09-1.57c0.226,0.725,1.04,1.57,2.02,1.57,1.08,0,1.74-0.368,2.35-1.41l-0.406-0.324c-0.0875,0.165-0.406,0.324-0.56,0.324-0.632,0-0.632-0.576-0.632-1.06v-5.46c0-0.66-1.26-1.51-4.2-1.51-1.42,0-3.88,0.594-3.88,2.33,0,0.813,0.636,1.32,1.41,1.32,0.944,0,1.41-0.599,1.41-1.5,0-0.171-0.0888-0.362-0.176-0.534-0.0875-0.17-0.176-0.345-0.176-0.45,0-0.39,0.961-0.516,1.22-0.516,1.69,0,1.6,0.665,1.6,1.78v1.44zm9.49-3.87-3.16,0-1.44,0,0,0.649,1.44,0,0,7.79-1.44,0,0,0.649,5.77,0,0-0.649-1.17,0,0-4.41c0-1.24,0.796-3.08,2.21-3.08,0.621,0,0.95,0.314,0.95,1.75v5.74h-1.2v0.649h5.76v-0.649h-1.39v-6.26c0-1.82-1.19-2.24-2.58-2.24-1.55,0-2.76,0.467-3.75,2.19v-2.14zm15,9.09,4.44,0,0-0.649-1.28,0,0-14.5c-1.05,0.0663-2.11,0.0663-3.16,0.0663h-1.73v0.649h1.73v6.99h-0.0437c-0.451-0.956-1.46-1.61-2.53-1.61-1.59,0-4.46,1.45-4.46,4.95,0,2.22,1.88,4.48,4.14,4.48,1.27,0,2.18-0.643,2.89-1.65v1.3zm0-3.02c0,1.36-1.08,2.72-2.48,2.72-0.709,0-1.04-0.534-1.04-1.2v-5.87c0-0.736,0.599-1.07,1.26-1.07,1.22,0,2.26,1.29,2.26,2.72v2.7zm14.6-1.61c0.384,0,1.12,0.11,1.12-0.44,0-2.42-2.19-4.02-4.46-4.02-2.63,0-5.38,1.7-5.38,4.77,0,3.08,2.56,4.66,5.4,4.66,2.13,0,3.85-0.939,4.44-3.02v0.9c-0.55,1.7-2.02,2.54-3.91,2.54-1.24,0-1.93-0.39-1.93-1.52v-2.81h5.21zm-5.21-0.649,0-2.13c0-0.61,0.434-1.04,1.47-1.04,1.16,0,1.69,0.362,1.69,0.95v2.21h-3.16zm8.93,4.8c0.746,0.505,1.69,0.824,2.59,0.824,2.24,0,3.25-1.73,3.25-3.53,0-2.32-1.7-2.92-4.14-3.1-0.989-0.0663-1.84-0.451-1.84-0.94,0-0.966,1.37-1.21,2.07-1.21,1.48,0,2.06,0.631,2.54,2h0.72v-2.65h-0.545c-0.154,0.226-0.466,0.55-0.643,0.5-0.774-0.225-1.19-0.5-2.03-0.5-1.77,0-3.16,1.11-3.16,3.04,0,2.54,2.13,2.92,4.07,3.12,0.869,0.0938,1.91,0.005,1.91,1.13,0,0.994-1.32,1.5-2.1,1.5-1.63,0-2.97-1.3-3.26-2.87h-0.555v3.16h0.532l0.605-0.472zm17.8-0.176,0-5.7c0-1.83-0.714-2.74-2.63-2.74-1.78,0-2.85,0.88-3.65,2.37h-0.0438v-8.47c-1.06,0.0662-2.11,0.0662-3.16,0.0662h-1.4v0.649h1.4v13.8h-1.24v0.649h5.64v-0.649h-1.24v-4.1c0-1.82,1.24-3.33,2.21-3.33,0.435,0,0.956,0.247,0.956,0.769v6.67h-1.13v0.649h5.69v-0.649h-1.4zm8.29-1.68c0,0.592-0.51,1.27-1.53,1.27-0.885,0-1.29-1.01-1.29-1.77,0-1.59,1.61-1.75,2.81-1.75v2.24zm0-2.89c-1.96,0-5.62,0.676-5.62,3.4,0,1.45,1.39,2.17,2.58,2.17s2.31-0.638,3.09-1.57c0.226,0.725,1.04,1.57,2.02,1.57,1.08,0,1.74-0.368,2.35-1.41l-0.406-0.324c-0.0875,0.165-0.406,0.324-0.56,0.324-0.633,0-0.633-0.576-0.633-1.06v-5.46c0-0.66-1.26-1.51-4.2-1.51-1.42,0-3.88,0.594-3.88,2.33,0,0.813,0.636,1.32,1.41,1.32,0.944,0,1.41-0.599,1.41-1.5,0-0.171-0.0888-0.362-0.176-0.534-0.0875-0.17-0.176-0.345-0.176-0.45,0-0.39,0.961-0.516,1.21-0.516,1.69,0,1.6,0.665,1.6,1.78v1.44zm12.3,5.57c1.05,0,2.11-0.406,3.16-0.406h1.5v-0.649h-1.5v-8.09h-3.16-1.41v0.648h1.41v5.1c0,0.681-0.863,2.39-2,2.39-0.922,0-0.808-0.872-0.808-2.07v-6.07h-3.16-1.5v0.648h1.5v4.99c0,2.16,0,3.51,2.65,3.51,1.44,0,2.77-0.626,3.29-2.1h0.0388v2.1zm10-1.68,0.0663,0c0.56,1.01,1.68,1.68,2.8,1.68,2.44,0,4.16-2.28,4.16-4.54,0-2.34-1.59-4.6-4.14-4.6-1.52,0-2.18,0.709-2.84,1.88h-0.045v-1.88h-3.16-1.55v0.648h1.55v12.4h-1.15v0.649h6.18v-0.649h-1.87v-5.55,0.000076zm0-4.14c0-0.961,1.16-2.97,2.4-2.97,0.89,0,1.12,0.758,1.12,1.49v5.53c0,0.67-0.314,1.11-1.04,1.11-1.33,0-2.47-1.72-2.47-2.63v-2.54zm9-3.26-1.37,0,0,0.648,1.37,0,0,6.54c0,1.1,0,1.9,2.11,1.9,1.8,0,3.03-0.62,3.41-2.36l-0.654-0.138c-0.137,0.736-0.291,1.44-1.17,1.44-0.654,0-0.539-0.707-0.539-1.17v-6.21h1.71v-0.648h-1.71v-2.9c-0.599,0.0662-1.21,0.226-1.81,0.226h-1.35v2.68zm7.63,8.26c0.746,0.505,1.69,0.824,2.59,0.824,2.24,0,3.25-1.73,3.25-3.53,0-2.32-1.7-2.92-4.14-3.1-0.989-0.0663-1.84-0.451-1.84-0.94,0-0.966,1.37-1.21,2.07-1.21,1.48,0,2.06,0.631,2.54,2h0.72v-2.65h-0.544c-0.155,0.226-0.468,0.55-0.644,0.5-0.774-0.225-1.19-0.5-2.03-0.5-1.77,0-3.16,1.11-3.16,3.04,0,2.54,2.13,2.92,4.07,3.12,0.869,0.0938,1.91,0.005,1.91,1.13,0,0.994-1.32,1.5-2.1,1.5-1.63,0-2.97-1.3-3.26-2.87h-0.555v3.16h0.532l0.605-0.472zm8.61-8.26-1.37,0,0,0.648,1.37,0,0,6.54c0,1.1,0,1.9,2.11,1.9,1.8,0,3.03-0.62,3.41-2.36l-0.654-0.138c-0.137,0.736-0.291,1.44-1.17,1.44-0.654,0-0.539-0.707-0.539-1.17v-6.21h1.71v-0.648h-1.71v-2.9c-0.599,0.0662-1.21,0.226-1.81,0.226h-1.35v2.68zm12.4,6.41c0,0.592-0.51,1.27-1.53,1.27-0.885,0-1.29-1.01-1.29-1.77,0-1.59,1.61-1.75,2.81-1.75v2.24zm0-2.89c-1.96,0-5.62,0.676-5.62,3.4,0,1.45,1.39,2.17,2.58,2.17s2.31-0.638,3.09-1.57c0.225,0.725,1.04,1.57,2.01,1.57,1.08,0,1.74-0.368,2.35-1.41l-0.406-0.324c-0.0875,0.165-0.406,0.324-0.56,0.324-0.632,0-0.632-0.576-0.632-1.06v-5.46c0-0.66-1.26-1.51-4.2-1.51-1.42,0-3.88,0.594-3.88,2.33,0,0.813,0.636,1.32,1.41,1.32,0.944,0,1.41-0.599,1.41-1.5,0-0.171-0.0887-0.362-0.176-0.534-0.0875-0.17-0.176-0.345-0.176-0.45,0-0.39,0.961-0.516,1.21-0.516,1.69,0,1.6,0.665,1.6,1.78v1.44zm12,5.22,4.44,0,0-0.649-1.28,0,0-14.5c-1.05,0.0662-2.11,0.0662-3.16,0.0662h-1.72v0.649h1.72v6.99h-0.0438c-0.451-0.956-1.46-1.61-2.53-1.61-1.59,0-4.45,1.45-4.45,4.95,0,2.22,1.88,4.48,4.14,4.48,1.28,0,2.18-0.642,2.89-1.65v1.3zm0-3.02c0,1.36-1.08,2.72-2.48,2.72-0.709,0-1.04-0.534-1.04-1.2v-5.87c0-0.736,0.599-1.07,1.26-1.07,1.22,0,2.26,1.29,2.26,2.72v2.7zm6.88-5.72-1.37,0,0,0.648,1.37,0,0,6.54c0,1.1,0,1.9,2.12,1.9,1.8,0,3.03-0.62,3.41-2.36l-0.654-0.138c-0.138,0.736-0.291,1.44-1.17,1.44-0.654,0-0.539-0.707-0.539-1.17v-6.21h1.71v-0.648h-1.71v-2.9c-0.599,0.0662-1.21,0.226-1.81,0.226h-1.35v2.68z"/>

 <path d="m119,157,0-153" stroke="#32487a" stroke-miterlimit="4" stroke-width="0.34040874" fill="none"/>

</svg>